<svg xmlns="http://www.w3.org/2000/svg" width="5461.333" height="5461.333" preserveAspectRatio="xMidYMid meet" version="1.0" viewBox="0 0 4096 4096"><metadata>Created by potrace 1.14, written by Peter Selinger 2001-2017</metadata><g fill="#000" stroke="none"><path d="M35658 38345 c-3 -3 -63 -8 -132 -10 -70 -2 -131 -7 -136 -10 -5 -3 -47 -8 -92 -10 -110 -4 -219 -18 -238 -30 -14 -9 -84 -21 -175 -32 -27 -3 -54 -9 -60 -13 -5 -5 -25 -11 -44 -13 -46 -8 -171 -49 -171 -57 0 -4 -18 -5 -40 -4 -24 1 -46 -4 -55 -12 -7 -8 -18 -14 -24 -14 -6 0 -11 -4 -11 -10 0 -5 -3 -9 -7 -8 -20 4 -90 -22 -210 -79 -17 -8 -38 -16 -46 -17 -8 -1 -21 -7 -28 -12 -12 -9 -41 -24 -59 -29 -3 -1 -23 -9 -45 -19 -22 -10 -44 -19 -50 -20 -5 -1 -14 -4 -20 -7 -9 -6 -114 -42 -125 -44 -3 0 -15 -6 -27 -13 -13 -7 -23 -10 -23 -6 0 3 -7 0 -17 -7 -9 -8 -17 -13 -17 -11 -1 2 -14 -2 -31 -9 -16 -6 -38 -13 -48 -14 -11 -1 -22 -6 -25 -11 -6 -8 -77 -46 -92 -49 -13 -3 -77 -39 -93 -53 -10 -9 -24 -17 -31 -18 -15 -2 -77 -43 -87 -57 -3 -5 -10 -9 -15 -10 -18 -2 -68 -33 -96 -59 -16 -16 -33 -28 -37 -28 -8 0 -71 -47 -115 -86 -10 -9 -29 -22 -42 -29 -14 -7 -32 -22 -42 -33 -10 -11 -25 -22 -32 -24 -8 -2 -31 -19 -51 -38 -204 -192 -333 -300 -357 -300 -5 0 -15 -7 -22 -15 -7 -9 -15 -13 -18 -11 -2 3 -13 -5 -23 -17 -10 -12 -18 -19 -19 -14 0 7 -40 -26 -86 -70 -13 -13 -26 -23 -29 -23 -11 0 -35 -28 -35 -40 0 -6 -3 -9 -7 -7 -5 3 -14 -1 -21 -9 -7 -8 -10 -14 -7 -14 3 0 -3 -8 -12 -18 -10 -11 -21 -17 -25 -15 -5 2 -8 0 -8 -5 0 -14 -47 -62 -54 -55 -3 4 -6 2 -6 -4 0 -5 -21 -32 -47 -60 -64 -67 -134 -143 -158 -174 -37 -46 -85 -117 -85 -126 0 -4 -9 -14 -21 -21 -12 -7 -19 -16 -16 -19 3 -3 -5 -17 -19 -31 -13 -15 -24 -30 -24 -35 0 -9 -17 -31 -42 -55 -10 -9 -18 -21 -18 -27 0 -5 -14 -26 -30 -45 -17 -19 -33 -43 -36 -52 -3 -10 -10 -18 -15 -18 -6 0 -7 -4 -4 -10 3 -5 2 -10 -4 -10 -5 0 -12 -8 -15 -18 -4 -10 -14 -27 -24 -38 -9 -10 -43 -58 -75 -107 -32 -48 -63 -87 -68 -87 -6 0 -8 -4 -5 -8 2 -4 -9 -23 -25 -41 -16 -19 -29 -37 -29 -41 0 -4 -11 -20 -24 -35 -14 -16 -33 -45 -43 -64 -23 -45 -38 -62 -49 -53 -5 4 -2 -1 5 -10 7 -10 9 -18 4 -18 -5 0 -17 -15 -27 -32 -26 -45 -89 -142 -96 -148 -3 -3 -16 -22 -29 -42 -12 -21 -28 -38 -33 -38 -6 0 -9 -3 -5 -6 3 -4 0 -13 -8 -21 -26 -26 -105 -140 -105 -152 0 -6 -4 -11 -8 -11 -5 0 -15 -11 -22 -25 -7 -13 -18 -22 -23 -18 -6 3 -7 1 -4 -4 4 -6 -4 -27 -18 -47 -14 -20 -25 -41 -25 -46 0 -6 -4 -10 -8 -10 -5 0 -28 -41 -52 -90 -23 -50 -46 -93 -51 -96 -5 -3 -9 -12 -9 -20 0 -8 -9 -34 -20 -56 -11 -23 -20 -48 -20 -55 0 -7 -4 -13 -10 -13 -5 0 -9 -3 -8 -7 2 -10 -5 -29 -48 -128 -19 -44 -34 -86 -34 -92 0 -7 -4 -13 -10 -13 -5 0 -12 -16 -16 -35 -3 -19 -10 -35 -16 -35 -5 0 -7 -4 -4 -8 2 -4 -6 -29 -19 -54 -24 -48 -91 -247 -87 -260 1 -5 -2 -8 -8 -8 -5 0 -10 -6 -10 -13 0 -8 -9 -40 -19 -73 -11 -32 -22 -71 -24 -85 -3 -15 -10 -35 -15 -45 -15 -27 -76 -186 -79 -204 -1 -8 -7 -16 -12 -18 -6 -2 -11 -8 -11 -14 0 -6 -13 -33 -30 -60 -16 -26 -30 -55 -30 -63 0 -8 -4 -15 -10 -15 -5 0 -10 -8 -10 -18 0 -10 -3 -22 -7 -26 -5 -4 -8 -11 -9 -14 0 -4 -3 -14 -6 -22 -17 -48 -47 -151 -52 -180 -1 -3 -4 -10 -8 -16 -4 -6 -9 -27 -12 -47 -2 -20 -7 -40 -9 -44 -3 -4 -8 -29 -11 -55 -4 -26 -9 -53 -11 -60 -2 -7 -7 -24 -9 -38 -10 -50 -15 -70 -21 -80 -3 -5 -8 -20 -10 -32 -4 -20 -49 -163 -62 -198 -3 -8 -7 -20 -8 -26 -3 -11 -16 -42 -51 -119 -10 -22 -19 -44 -20 -50 -1 -5 -14 -37 -30 -70 -15 -33 -27 -63 -26 -67 1 -5 -2 -8 -8 -8 -5 0 -10 -7 -10 -15 0 -9 -7 -18 -15 -21 -8 -4 -12 -10 -9 -15 3 -5 -4 -9 -15 -9 -12 0 -26 9 -33 20 -7 11 -16 20 -19 20 -4 0 -34 27 -67 60 -34 33 -66 60 -72 60 -5 0 -10 5 -10 10 0 6 -4 10 -10 10 -24 0 -182 159 -173 174 3 6 3 8 -2 4 -7 -7 -35 14 -35 26 0 3 -8 14 -17 25 -10 10 -31 33 -47 52 -47 57 -106 119 -112 119 -2 0 -22 17 -43 38 -21 20 -60 55 -86 77 -25 22 -86 77 -133 123 -48 45 -90 82 -94 82 -5 0 -8 4 -8 8 0 5 -11 15 -25 22 -14 7 -25 19 -25 27 0 7 -7 13 -15 13 -9 0 -18 7 -21 15 -4 8 -12 15 -19 15 -8 0 -27 11 -44 26 -16 14 -32 24 -35 22 -3 -2 -14 5 -25 14 -11 9 -21 14 -24 12 -2 -2 -10 2 -17 11 -7 8 -22 15 -33 15 -11 0 -17 3 -14 6 4 4 -19 20 -51 37 -31 16 -62 35 -68 43 -6 8 -18 14 -25 14 -8 0 -21 9 -29 19 -7 11 -17 18 -22 15 -4 -3 -11 2 -14 10 -3 9 -12 16 -20 16 -8 0 -14 5 -14 10 0 6 -7 10 -15 10 -8 0 -15 5 -15 10 0 6 -6 10 -13 10 -7 0 -23 9 -35 20 -12 11 -26 20 -32 20 -6 0 -13 7 -16 15 -4 8 -10 13 -14 10 -5 -3 -16 5 -24 17 -9 12 -16 19 -16 15 0 -5 -26 12 -57 36 -32 24 -73 52 -90 61 -18 9 -33 21 -33 26 0 6 -5 10 -10 10 -11 0 -71 39 -81 53 -3 5 -9 8 -13 8 -10 -2 -69 30 -90 48 -10 9 -20 15 -22 13 -2 -1 -21 5 -42 14 -20 10 -40 16 -44 16 -5 -1 -8 2 -8 8 0 5 -7 10 -15 10 -8 0 -15 5 -15 11 0 5 -4 7 -10 4 -5 -3 -10 -2 -10 3 0 5 -6 9 -12 9 -7 0 -49 17 -93 38 -44 22 -87 40 -95 42 -21 3 -215 76 -275 102 -95 43 -140 63 -211 97 -39 19 -78 34 -86 34 -8 0 -18 3 -22 7 -3 4 -13 8 -21 9 -8 1 -43 11 -77 22 -35 11 -90 25 -123 31 -33 6 -73 14 -90 17 -16 3 -47 7 -67 9 -20 2 -47 7 -60 11 -13 4 -33 8 -45 10 -12 1 -52 10 -89 19 -36 9 -68 14 -71 11 -3 -3 -14 -1 -23 4 -10 5 -46 12 -80 15 -34 3 -90 8 -124 11 -33 4 -69 8 -79 9 -10 1 -22 6 -25 11 -4 5 -34 9 -67 8 -71 -1 -97 4 -88 19 4 6 -2 8 -18 4 -13 -4 -233 -7 -489 -8 -256 -1 -469 -4 -474 -7 -5 -3 -28 -6 -50 -8 -41 -2 -70 -7 -116 -18 -14 -4 -72 -9 -130 -11 -110 -5 -142 -9 -200 -20 -19 -3 -48 -8 -65 -10 -16 -2 -39 -6 -50 -9 -56 -14 -185 -45 -220 -52 -22 -4 -42 -8 -45 -9 -3 -1 -17 -5 -32 -9 -16 -5 -28 -13 -28 -19 0 -6 -3 -7 -6 -4 -4 4 -19 0 -33 -8 -22 -12 -71 -34 -91 -40 -3 -1 -27 -12 -55 -25 -56 -26 -64 -29 -155 -61 -36 -12 -67 -25 -70 -28 -3 -3 -16 -8 -30 -9 -14 -2 -29 -8 -34 -13 -6 -5 -18 -9 -28 -9 -10 0 -18 -4 -18 -8 0 -4 -12 -9 -26 -10 -14 -1 -32 -9 -40 -17 -9 -8 -20 -13 -25 -10 -5 4 -9 1 -9 -4 0 -6 -3 -10 -7 -9 -9 2 -74 -27 -113 -49 -14 -8 -37 -20 -52 -26 -16 -6 -28 -15 -28 -19 0 -4 -4 -8 -10 -8 -13 0 -113 -61 -122 -74 -4 -6 -8 -7 -8 -2 0 5 -10 0 -22 -11 -21 -18 -164 -103 -175 -103 -2 0 -24 -14 -49 -30 -24 -17 -44 -28 -44 -25 0 8 -72 -35 -81 -48 -3 -4 -14 -9 -23 -11 -10 -1 -22 -9 -27 -17 -5 -8 -9 -10 -9 -6 0 4 -15 -3 -33 -17 -19 -14 -37 -23 -40 -19 -4 3 -7 1 -7 -5 0 -7 -6 -12 -14 -12 -7 0 -19 -7 -26 -15 -7 -8 -16 -13 -20 -10 -5 3 -15 -2 -23 -10 -9 -8 -23 -15 -31 -15 -9 0 -16 -4 -16 -9 0 -5 -11 -12 -25 -15 -14 -4 -25 -11 -25 -16 0 -6 -9 -10 -19 -10 -11 0 -23 -5 -26 -10 -4 -6 -10 -8 -15 -5 -4 3 -10 -2 -14 -10 -3 -8 -12 -15 -21 -15 -8 0 -15 -5 -15 -11 0 -5 -4 -7 -10 -4 -5 3 -10 2 -10 -3 0 -5 -22 -19 -50 -32 -27 -13 -50 -26 -50 -30 0 -3 -14 -14 -30 -24 -17 -9 -41 -28 -55 -42 -13 -13 -28 -24 -33 -24 -6 0 -13 -7 -16 -16 -3 -8 -10 -12 -16 -9 -5 3 -10 -1 -10 -9 0 -9 -4 -15 -9 -13 -16 4 -83 -65 -98 -101 -16 -39 -15 -110 2 -162 7 -19 10 -41 8 -48 -7 -20 47 -103 96 -147 25 -22 59 -53 76 -70 74 -70 175 -145 196 -145 5 0 12 -6 15 -13 3 -8 10 -14 17 -14 7 0 53 -20 102 -44 50 -25 113 -53 140 -63 28 -10 54 -23 60 -27 5 -5 17 -9 27 -9 10 0 18 -5 18 -11 0 -5 3 -8 8 -6 4 3 18 0 32 -6 14 -5 31 -11 39 -13 8 -1 17 -6 20 -11 3 -4 13 -9 21 -11 8 -2 32 -12 53 -22 20 -11 37 -17 37 -15 0 3 15 -2 33 -12 17 -9 35 -17 39 -18 4 0 16 -8 28 -17 11 -10 20 -16 20 -14 0 3 43 -10 95 -29 52 -18 95 -32 95 -29 0 2 12 -1 26 -6 14 -6 46 -13 72 -16 25 -3 54 -10 64 -15 11 -6 18 -6 18 0 0 10 39 3 56 -10 6 -5 13 -6 16 -4 6 6 41 -2 143 -30 83 -23 97 -26 120 -29 11 -1 25 -5 31 -8 6 -4 21 -9 35 -12 13 -2 40 -11 59 -19 69 -28 75 -30 83 -29 4 1 7 -2 7 -6 0 -5 6 -9 13 -10 24 -2 47 -8 53 -15 4 -4 20 -7 35 -7 15 0 31 -5 34 -10 4 -6 11 -8 16 -4 5 3 15 1 22 -4 10 -8 57 -22 87 -27 3 0 11 -4 18 -8 6 -5 12 -6 12 -4 0 2 24 0 53 -5 28 -5 75 -11 102 -14 28 -2 61 -7 75 -10 14 -3 39 -7 55 -10 17 -3 32 -10 33 -15 2 -5 7 -7 11 -4 5 2 48 -2 97 -11 93 -16 123 -20 214 -30 30 -3 66 -7 80 -10 14 -3 35 -7 47 -9 12 -2 26 -6 31 -9 10 -6 69 -15 133 -20 20 -2 41 -6 45 -9 5 -2 38 -8 74 -11 36 -4 81 -9 100 -11 19 -3 64 -7 100 -10 85 -6 149 -14 180 -22 14 -3 59 -8 100 -9 122 -5 176 -11 189 -18 6 -4 11 -3 11 1 0 13 80 9 240 -13 79 -10 132 -13 275 -15 149 -3 201 -9 305 -34 19 -5 475 -18 550 -16 164 4 441 -2 540 -13 133 -14 214 -18 398 -21 141 -2 207 -7 217 -15 8 -7 15 -10 15 -6 0 10 114 -58 140 -84 8 -8 38 -33 65 -55 28 -22 56 -45 63 -52 7 -7 16 -13 20 -13 4 0 24 -16 44 -35 20 -19 39 -35 42 -35 7 0 51 -36 88 -73 15 -15 28 -25 28 -23 0 3 17 -12 38 -32 21 -21 69 -60 105 -87 37 -27 67 -52 67 -57 0 -4 5 -8 11 -8 6 0 45 -34 87 -75 42 -41 79 -75 82 -75 4 0 13 -11 20 -25 7 -13 17 -22 22 -19 4 3 8 -3 8 -12 0 -10 3 -15 6 -11 3 3 31 -19 61 -49 30 -30 59 -54 63 -54 5 0 10 -4 12 -9 2 -5 28 -36 58 -68 30 -32 61 -69 68 -83 13 -27 12 -156 -1 -177 -5 -7 -6 -13 -2 -13 3 0 0 -10 -6 -22 -7 -13 -13 -34 -15 -48 -1 -14 -3 -26 -4 -27 -1 -2 -4 -7 -5 -13 -1 -5 -3 -11 -5 -12 -3 -5 -12 -58 -26 -148 -8 -56 -11 -71 -29 -150 -9 -41 -19 -82 -22 -90 -3 -8 -7 -22 -9 -30 -7 -37 -18 -86 -21 -100 -2 -8 -5 -22 -7 -30 -1 -8 -7 -33 -14 -55 -6 -22 -14 -56 -17 -75 -3 -19 -10 -52 -16 -72 -5 -20 -12 -56 -15 -80 -2 -24 -7 -54 -10 -68 -6 -25 -10 -77 -19 -270 -5 -94 -10 -155 -15 -155 -1 0 -3 -8 -5 -18 -2 -10 -7 -26 -11 -35 -4 -9 -8 -19 -9 -22 -2 -5 -13 -84 -21 -137 -9 -67 -21 -138 -24 -138 -1 0 -3 -9 -5 -19 -2 -10 -11 -42 -21 -70 -9 -28 -18 -62 -19 -76 -2 -14 -4 -25 -5 -25 -3 0 -19 -84 -24 -130 -1 -11 -8 -45 -14 -75 -6 -30 -14 -68 -17 -85 -3 -16 -8 -93 -10 -170 -9 -287 -15 -422 -21 -485 -4 -36 -7 -75 -7 -87 -1 -13 -5 -23 -9 -23 -5 0 -5 -8 1 -17 5 -10 5 -26 0 -40 -5 -13 -5 -23 -1 -23 4 0 7 -16 7 -35 0 -19 -2 -35 -5 -35 -3 0 -6 -53 -6 -118 -1 -65 -7 -143 -14 -175 -6 -31 -14 -99 -16 -150 -9 -176 -21 -341 -29 -407 -6 -41 -12 -125 -20 -270 -6 -108 -11 -150 -22 -185 -3 -11 -7 -42 -8 -70 -2 -27 -6 -79 -9 -115 -3 -36 -8 -105 -11 -155 -8 -138 -16 -205 -26 -231 -5 -16 -5 -24 2 -24 6 0 7 -5 3 -12 -4 -6 -9 -97 -10 -201 -1 -105 -6 -193 -11 -196 -4 -3 -9 -17 -11 -31 -1 -14 -3 -31 -4 -37 -1 -7 -5 -13 -9 -13 -5 0 -6 -7 -3 -15 4 -10 0 -15 -12 -15 -15 0 -16 -2 -5 -9 17 -11 -4 -25 -21 -15 -8 5 -7 0 2 -11 14 -17 13 -18 -2 -12 -11 4 -17 2 -15 -6 1 -7 -6 -11 -17 -9 -10 2 -15 -1 -12 -7 4 -5 1 -13 -5 -17 -7 -4 -9 -3 -6 3 4 6 0 13 -8 16 -8 4 -12 1 -9 -6 2 -7 -5 -12 -20 -12 -17 0 -22 4 -18 15 3 8 1 12 -3 7 -11 -9 -46 43 -38 56 4 6 1 7 -7 2 -10 -6 -12 -4 -7 9 4 9 3 15 -1 12 -12 -7 -44 63 -36 77 4 7 4 9 -1 5 -8 -8 -52 85 -62 132 -3 14 -11 28 -17 32 -6 4 -11 13 -11 20 -1 7 -7 27 -15 43 -25 56 -48 129 -44 137 3 5 1 8 -4 8 -5 0 -14 17 -20 38 -5 20 -22 75 -37 122 -14 47 -28 93 -31 103 -2 9 -6 27 -10 40 -3 12 -7 33 -9 47 -2 14 -5 32 -8 40 -2 8 -7 29 -11 45 -4 17 -12 39 -16 50 -5 11 -23 64 -39 119 -17 54 -36 105 -42 112 -7 8 -9 17 -5 21 3 3 0 13 -7 22 -8 9 -26 44 -40 79 -15 35 -39 79 -53 98 -15 19 -23 34 -19 34 3 0 -2 15 -13 33 -38 61 -92 169 -92 182 0 7 -7 15 -15 19 -8 3 -14 9 -13 13 1 4 -19 51 -45 105 -26 53 -47 101 -47 107 0 6 -3 11 -8 11 -4 0 -13 15 -21 33 -22 51 -102 211 -114 225 -5 7 -20 32 -32 55 -12 23 -49 95 -83 160 -33 64 -70 130 -81 146 -12 16 -21 34 -21 39 0 5 -7 12 -15 16 -8 3 -15 11 -15 18 0 7 -9 19 -21 26 -12 7 -18 16 -15 19 3 3 0 11 -7 19 -19 21 -51 63 -104 134 -26 36 -51 67 -55 68 -5 2 -8 8 -8 13 0 5 -12 23 -27 38 -32 33 -39 42 -73 91 -13 19 -29 38 -35 42 -5 4 -6 8 -2 8 5 0 0 12 -10 28 -10 15 -32 52 -47 82 -16 30 -37 67 -48 82 -10 14 -18 30 -18 35 0 9 -56 111 -114 211 -14 23 -26 45 -26 47 0 5 -24 33 -56 66 -5 5 -29 26 -53 46 -25 21 -65 57 -89 81 -25 23 -49 42 -53 42 -5 0 -9 5 -9 11 0 5 -4 7 -10 4 -5 -3 -10 -1 -10 5 0 6 -11 15 -25 20 -14 5 -28 17 -31 25 -4 8 -11 15 -17 15 -11 0 -118 77 -128 93 -3 5 -10 8 -14 7 -4 -1 -18 7 -31 19 -13 11 -24 18 -24 15 0 -6 -195 191 -255 259 -190 213 -245 270 -281 294 -13 8 -21 20 -17 27 3 6 3 8 -2 4 -4 -4 -13 -2 -21 5 -21 19 -36 30 -76 57 -21 14 -38 28 -38 33 0 4 -5 7 -11 7 -6 0 -48 23 -95 50 -47 28 -89 50 -94 50 -6 0 -10 5 -10 10 0 6 -7 10 -14 10 -16 0 -109 59 -114 72 -2 4 -9 8 -16 8 -7 0 -21 8 -32 18 -20 19 -54 36 -66 34 -5 -1 -8 5 -8 13 0 8 -6 15 -13 15 -7 0 -22 8 -33 18 -10 10 -35 29 -54 42 -48 33 -59 42 -78 63 -9 9 -22 17 -29 17 -7 0 -13 5 -13 10 0 6 -5 10 -10 10 -6 0 -20 9 -32 20 -12 11 -28 20 -35 20 -7 0 -13 5 -13 10 0 6 -7 10 -15 10 -8 0 -26 11 -40 25 -14 14 -25 23 -25 19 0 -4 -9 1 -20 11 -11 10 -17 22 -13 28 3 6 1 7 -5 3 -14 -8 -64 64 -67 99 -2 13 -6 28 -9 34 -4 6 -8 57 -10 115 -5 134 -8 142 -54 153 -22 5 -2333 8 -5603 8 -5195 -1 -5567 -3 -5589 -18 -14 -9 -29 -17 -35 -17 -6 0 -19 -13 -28 -30 -10 -16 -22 -30 -26 -30 -4 0 -22 -22 -40 -50 -18 -27 -37 -50 -42 -50 -5 0 -8 -4 -6 -8 2 -8 -30 -51 -85 -114 -16 -17 -28 -35 -28 -40 0 -5 -12 -21 -28 -37 -15 -15 -38 -43 -52 -61 -14 -18 -49 -57 -78 -87 -28 -29 -52 -55 -52 -57 0 -11 -169 -176 -180 -176 -6 0 -8 -4 -5 -10 3 -5 -1 -10 -9 -10 -9 0 -16 -4 -16 -10 0 -5 -7 -10 -15 -10 -8 0 -23 -10 -35 -22 -11 -12 -20 -18 -20 -14 0 4 -6 1 -14 -6 -7 -7 -24 -20 -36 -28 -13 -8 -36 -27 -52 -42 -16 -16 -33 -28 -38 -28 -6 0 -10 -4 -10 -10 0 -5 -7 -10 -17 -10 -9 0 -14 -3 -10 -6 7 -7 -5 -19 -53 -54 -19 -13 -39 -28 -45 -32 -54 -44 -102 -78 -109 -78 -5 0 -19 -11 -31 -24 -12 -13 -31 -27 -42 -30 -11 -4 -28 -15 -38 -26 -10 -11 -22 -20 -27 -20 -5 0 -14 -5 -21 -10 -28 -23 -87 -59 -87 -52 0 4 -4 2 -8 -3 -4 -6 -50 -43 -103 -83 -52 -39 -122 -97 -155 -129 -32 -31 -62 -57 -66 -58 -4 0 -19 -15 -33 -34 -14 -19 -25 -31 -25 -25 0 5 -8 -3 -18 -19 -10 -15 -21 -25 -24 -22 -2 3 -10 -5 -17 -18 -6 -12 -25 -31 -41 -42 -16 -10 -27 -22 -26 -25 4 -8 -72 -78 -79 -72 -3 3 -5 -1 -5 -8 0 -7 -11 -23 -25 -36 -14 -13 -25 -20 -25 -17 0 4 -11 -8 -25 -27 -14 -19 -25 -31 -25 -26 0 4 -11 -4 -24 -18 -13 -15 -26 -26 -29 -26 -4 0 -22 -16 -42 -35 -19 -20 -35 -32 -35 -28 0 4 -7 -2 -15 -13 -8 -10 -15 -16 -15 -12 0 4 -10 -3 -23 -15 -28 -27 -66 -59 -132 -112 -28 -21 -58 -48 -68 -59 -9 -10 -17 -16 -17 -13 0 4 -33 -26 -73 -66 -40 -39 -90 -87 -112 -106 -22 -19 -39 -35 -37 -35 2 -1 -23 -29 -56 -63 -33 -34 -58 -64 -55 -67 3 -3 -2 -8 -11 -12 -9 -3 -16 -13 -16 -21 0 -8 -4 -11 -10 -8 -6 3 -10 -1 -10 -9 0 -9 -9 -25 -20 -36 -11 -11 -20 -24 -20 -29 0 -5 -7 -12 -16 -15 -9 -4 -14 -9 -11 -12 3 -4 -5 -18 -19 -32 -13 -15 -24 -31 -24 -36 0 -14 -63 -106 -72 -106 -5 0 -6 -4 -3 -10 3 -5 1 -10 -4 -10 -6 0 -11 -7 -11 -15 0 -8 -4 -15 -10 -15 -5 0 -10 -7 -10 -15 0 -8 -4 -15 -8 -15 -4 0 -25 -27 -46 -60 -21 -33 -42 -60 -47 -60 -5 0 -9 -7 -9 -15 0 -9 -7 -18 -15 -21 -8 -4 -15 -11 -15 -16 0 -11 -20 -34 -122 -139 -38 -38 -68 -71 -68 -74 0 -2 -14 -19 -30 -37 -62 -68 -70 -78 -70 -87 0 -5 -6 -16 -13 -23 -7 -7 -24 -33 -38 -58 -13 -25 -27 -47 -30 -50 -10 -9 -39 -73 -39 -86 0 -7 -6 -19 -13 -26 -11 -11 -37 -63 -40 -78 0 -3 -7 -11 -14 -18 -7 -7 -13 -23 -13 -34 0 -12 -3 -18 -7 -15 -3 4 -14 -11 -24 -33 -10 -22 -23 -40 -30 -40 -7 0 -9 -3 -6 -6 8 -8 -24 -64 -35 -64 -4 0 -8 -9 -8 -20 0 -11 -4 -20 -8 -20 -8 0 -52 -92 -52 -110 0 -6 -4 -10 -8 -10 -4 0 -8 -10 -9 -22 -1 -11 -7 -24 -13 -28 -7 -4 -12 -11 -12 -16 0 -5 -5 -20 -10 -34 -6 -14 -11 -29 -12 -35 -4 -12 -16 -43 -49 -118 -15 -31 -27 -61 -27 -65 -1 -4 -8 -21 -15 -38 -11 -28 -26 -81 -27 -101 0 -5 -5 -19 -10 -33 -10 -26 -14 -43 -24 -95 -2 -16 -7 -43 -10 -60 -3 -16 -7 -43 -9 -60 -7 -61 -17 -112 -36 -190 -11 -44 -22 -108 -24 -143 -2 -34 -7 -67 -10 -72 -3 -6 -2 -10 4 -10 6 0 8 -6 6 -12 -9 -23 -11 -109 -3 -114 5 -3 5 -10 2 -16 -6 -9 -10 -609 -4 -633 1 -5 1 -14 0 -20 -5 -28 -2 -844 4 -853 3 -6 2 -13 -3 -16 -5 -3 -6 -21 -1 -40 4 -19 5 -38 1 -44 -8 -13 -6 -220 2 -228 3 -3 2 -17 -3 -30 -6 -14 -6 -26 0 -29 6 -3 6 -15 0 -30 -5 -14 -5 -27 0 -30 5 -3 5 -18 0 -33 -4 -16 -4 -35 1 -43 4 -8 4 -21 -1 -28 -4 -8 -4 -27 0 -42 5 -16 6 -29 2 -29 -6 0 -7 -138 -2 -165 1 -5 1 -14 0 -20 -4 -22 -1 -116 5 -125 3 -6 2 -10 -3 -10 -6 0 -7 -14 -2 -35 4 -19 5 -35 1 -35 -7 0 -6 -74 2 -87 2 -4 1 -17 -3 -28 -4 -11 -4 -30 1 -42 5 -12 5 -24 1 -27 -6 -3 -7 -61 -2 -76 1 -3 1 -9 0 -15 -5 -23 -2 -164 4 -174 4 -6 3 -11 -3 -11 -6 0 -6 -11 -1 -29 4 -16 6 -32 3 -35 -4 -4 -13 -2378 -11 -3261 1 -1415 0 -3781 -3 -4117 -3 -274 -7 -414 -14 -410 -6 4 -6 0 0 -9 7 -8 10 -66 8 -144 -3 -162 -3 -121 -2 -386 1 -124 -1 -231 -5 -238 -4 -6 -3 -11 2 -11 12 0 9 -83 -3 -92 -7 -5 -7 -8 0 -8 11 0 12 -217 2 -244 -4 -9 -3 -16 1 -16 9 0 8 -78 -1 -86 -3 -3 -1 -18 3 -34 4 -16 6 -30 4 -33 -4 -3 -5 -278 -3 -562 0 -61 0 -115 -1 -120 -2 -6 -2 -14 -1 -20 2 -13 2 -650 0 -661 -1 -5 -1 -12 0 -16 4 -16 3 -129 -1 -133 -2 -2 -1 -33 2 -69 3 -36 3 -73 0 -81 -3 -8 -3 -44 0 -80 3 -35 2 -75 -1 -89 -4 -14 -4 -28 -1 -30 4 -2 5 -70 2 -151 -3 -80 -2 -155 2 -166 4 -10 4 -19 -1 -19 -9 0 -8 -31 3 -48 4 -6 4 -12 -1 -12 -9 0 -8 -82 1 -106 3 -8 2 -13 -3 -10 -9 6 -5 -79 4 -95 4 -5 2 -9 -3 -9 -10 0 -9 -36 0 -46 4 -3 3 -17 -2 -30 -7 -16 -6 -24 1 -24 8 0 8 -4 1 -12 -14 -18 -15 -20 -3 -49 5 -15 7 -30 4 -33 -5 -5 -7 -109 -3 -131 1 -5 2 -13 1 -17 -5 -21 -3 -117 3 -127 4 -6 3 -11 -2 -11 -5 0 -6 -17 -2 -40 4 -23 3 -43 -2 -46 -5 -3 -5 -11 1 -18 7 -9 7 -17 -2 -26 -10 -10 -9 -11 3 -5 12 7 13 6 3 -6 -10 -12 -10 -18 -1 -27 9 -9 9 -15 0 -24 -8 -8 -8 -17 0 -32 8 -15 8 -21 -1 -24 -6 -2 -8 -8 -5 -13 10 -16 12 -159 2 -165 -4 -3 -5 -11 -1 -17 13 -20 13 -151 0 -159 -9 -6 -9 -8 1 -8 6 0 12 -10 12 -23 0 -13 -6 -29 -12 -36 -10 -11 -10 -13 0 -7 13 8 13 -26 12 -574 0 -129 0 -419 0 -645 2 -627 2 -620 -14 -676 -7 -23 -12 -25 -62 -26 -30 0 -56 -2 -58 -4 -2 -2 -100 -2 -218 1 -117 3 -248 3 -291 0 -44 -3 -81 -2 -84 3 -2 4 -8 5 -12 3 -17 -11 -61 -14 -61 -5 0 6 -5 7 -11 3 -6 -4 -1000 -6 -2208 -5 -1208 1 -2202 2 -2208 2 -7 0 -73 0 -146 -1 -73 -1 -137 0 -143 1 -5 1 -11 1 -14 0 -3 -1 -423 -4 -935 -5 -511 -2 -946 -7 -965 -10 -19 -4 -48 -11 -65 -16 -16 -5 -46 -11 -65 -14 -19 -4 -53 -10 -74 -15 -22 -6 -42 -9 -45 -9 -3 0 -8 -1 -11 -2 -3 -1 -13 -3 -24 -5 -15 -3 -139 -43 -196 -63 -8 -3 -18 -4 -23 -4 -4 1 -7 -2 -7 -8 0 -5 -9 -10 -20 -10 -11 0 -20 -4 -20 -8 0 -8 -59 -36 -72 -33 -4 0 -19 -10 -34 -24 -15 -14 -29 -23 -33 -21 -3 2 -15 -2 -26 -10 -10 -8 -16 -14 -12 -14 4 0 0 -14 -8 -30 -14 -27 -16 -119 -16 -775 -1 -557 -4 -743 -13 -738 -8 5 -8 3 0 -8 18 -21 18 -1847 1 -1868 -9 -11 -9 -13 0 -8 14 9 15 -31 1 -50 -5 -6 -5 -14 0 -17 5 -3 10 -101 10 -218 3 -493 2 -477 22 -491 24 -16 991 -15 1018 2 21 13 28 58 27 171 0 68 4 118 10 122 6 5 6 8 0 8 -11 0 -13 245 -2 256 4 4 7 12 7 18 0 6 -4 5 -9 -2 -4 -8 -8 35 -9 100 0 71 4 118 11 127 9 11 9 13 0 8 -16 -10 -15 212 1 232 8 11 8 13 -2 7 -7 -4 -12 -1 -12 8 0 9 6 16 13 16 9 0 9 2 0 8 -15 10 -15 354 1 345 7 -5 7 -2 0 8 -14 17 -13 246 0 268 6 9 5 12 -1 8 -15 -9 -14 314 1 332 8 11 8 13 -1 7 -10 -6 -12 37 -10 203 1 115 6 213 9 217 4 4 4 14 0 23 -10 20 -9 82 1 98 4 6 4 14 -1 17 -7 4 -8 61 -2 91 1 6 1 15 0 20 -8 33 -4 245 5 245 6 0 5 4 -2 8 -17 11 -14 238 3 272 16 33 47 58 81 67 16 4 6612 8 14658 10 8047 1 14684 4 14750 6 66 2 127 5 135 8 15 4 60 44 60 53 0 3 13 27 29 54 17 29 41 97 57 163 15 63 29 121 32 129 3 8 6 17 7 20 5 15 16 78 18 98 1 12 6 22 11 22 6 0 5 5 -2 12 -7 7 -8 17 -3 27 9 15 14 37 26 114 3 17 9 39 12 47 3 8 8 26 10 40 2 14 6 32 10 40 7 18 10 26 17 65 3 17 14 60 25 98 11 37 17 67 14 67 -3 0 1 7 8 16 7 9 14 21 15 28 1 6 8 25 15 41 7 17 13 32 14 35 2 5 5 15 21 55 9 24 8 22 17 67 5 21 13 38 19 38 6 0 9 3 5 6 -3 3 0 26 8 50 7 24 11 44 9 44 -3 0 0 8 5 17 5 10 11 32 14 49 3 18 10 47 15 65 12 37 34 118 38 134 1 6 8 30 15 55 7 25 14 53 15 64 1 10 5 21 10 25 5 3 11 13 13 21 2 8 4 20 6 25 1 6 8 24 14 40 7 17 15 40 17 51 2 12 11 39 21 60 9 22 18 44 19 51 1 7 9 27 18 44 9 18 16 38 16 46 0 7 4 13 8 13 5 0 9 6 10 13 1 18 7 39 21 72 12 27 40 115 46 140 1 6 6 33 10 60 10 57 12 64 15 68 2 2 5 18 13 62 3 17 10 45 16 63 5 18 10 35 10 37 1 3 1 6 2 8 3 10 11 46 14 62 2 11 4 20 5 20 1 0 4 13 6 30 3 16 9 32 12 35 4 3 7 12 7 20 -1 8 10 40 23 70 31 71 40 94 39 100 0 3 6 16 13 30 18 33 68 175 80 226 5 23 15 54 21 70 7 16 12 32 11 36 -1 4 3 20 10 35 6 15 13 39 15 53 2 14 8 34 13 45 10 22 37 130 46 185 4 19 10 40 14 45 4 6 10 30 13 55 6 48 15 111 22 147 5 28 76 265 84 278 3 6 6 17 8 25 1 9 10 34 19 55 10 22 19 45 21 50 21 71 70 202 78 207 5 4 6 10 3 14 -4 4 -3 14 1 23 5 9 12 30 15 46 6 30 24 111 29 130 2 6 16 64 31 130 15 66 30 127 33 135 4 8 7 24 8 35 2 11 13 52 26 90 12 39 24 75 25 82 5 25 57 178 64 188 13 17 97 289 107 345 2 14 8 39 13 55 10 33 32 143 30 147 -1 2 4 17 10 33 14 34 50 178 55 214 1 13 6 26 11 30 5 3 11 17 12 31 2 14 10 39 17 55 7 17 21 58 31 92 10 34 21 60 26 57 5 -3 8 -2 6 3 -3 11 13 76 22 88 7 10 39 111 45 142 2 10 4 18 5 18 1 0 3 8 5 18 2 10 10 41 19 70 9 28 17 66 20 82 2 17 9 53 16 80 6 28 14 59 16 70 5 25 11 49 24 100 5 22 12 54 15 70 3 17 17 84 31 150 14 66 26 126 26 133 1 6 4 12 8 12 3 0 6 8 7 18 2 21 21 101 30 122 3 8 8 23 9 33 2 9 17 57 33 105 15 48 32 103 36 122 3 19 22 82 42 139 19 57 36 111 39 120 13 58 27 108 31 121 4 8 8 28 10 45 3 16 8 34 13 40 6 8 20 76 25 120 1 6 4 19 7 30 4 11 10 49 13 85 4 36 10 70 14 75 4 6 8 24 10 40 1 17 9 40 17 53 8 12 12 22 9 22 -5 0 37 115 53 146 6 10 17 34 24 52 7 17 16 32 19 32 3 0 6 6 6 13 0 6 9 32 21 57 11 25 28 68 37 95 10 28 20 57 23 65 3 8 16 53 29 100 13 47 25 90 27 95 2 9 14 74 19 115 2 8 6 21 10 28 5 6 6 12 4 12 -5 0 4 48 31 155 11 44 18 83 16 86 -2 4 0 9 5 11 5 1 11 23 14 48 7 55 22 117 42 167 12 32 29 90 41 138 1 6 9 29 18 53 8 23 12 42 9 42 -3 0 2 9 12 20 10 11 15 20 11 20 -4 0 -1 10 6 22 7 13 13 26 14 31 1 4 3 9 4 12 1 3 3 8 5 13 1 4 5 16 9 27 4 11 12 31 16 45 4 14 12 34 16 45 4 11 8 25 9 30 1 6 7 28 14 49 8 22 15 51 16 65 2 14 7 45 13 68 5 23 7 44 4 48 -3 3 0 5 7 5 7 0 10 4 7 8 -4 7 16 92 31 132 4 8 5 18 5 23 -1 4 2 7 7 7 5 0 8 8 7 18 -2 9 5 36 15 60 10 23 16 42 14 42 -3 0 4 21 14 48 10 26 19 52 20 57 0 6 8 18 16 28 8 9 10 17 5 17 -7 0 -7 7 0 20 6 11 9 20 6 20 -3 0 2 16 10 35 8 19 15 38 15 42 1 5 3 13 5 18 2 6 8 30 14 55 6 25 13 53 15 62 7 26 15 59 21 92 2 16 7 33 10 37 2 4 7 27 10 51 3 24 10 60 16 82 8 35 20 96 34 181 3 17 10 55 15 85 6 30 12 66 14 80 5 36 26 117 61 235 8 28 17 59 19 70 2 11 10 39 19 63 8 23 13 42 10 42 -2 0 1 10 8 23 7 12 14 27 14 32 1 6 3 12 4 15 2 6 7 26 14 58 10 46 32 101 77 197 15 33 40 108 45 135 3 14 8 36 13 50 9 25 38 147 47 196 3 14 12 51 20 82 30 107 43 166 39 171 -3 2 -1 9 4 15 6 7 12 24 15 39 8 44 17 67 26 67 5 0 7 7 4 15 -3 8 1 29 10 46 9 18 16 41 16 51 0 12 4 16 12 12 7 -4 8 -3 4 5 -4 6 -2 28 5 49 7 20 12 40 11 45 -1 4 2 7 6 7 4 0 9 10 9 22 1 13 7 24 13 26 5 2 8 8 5 13 -3 5 -1 17 4 27 6 11 13 34 16 53 3 18 11 39 17 46 6 7 8 13 5 13 -4 0 0 19 18 90 2 8 4 15 5 15 1 0 4 11 6 25 2 13 10 28 17 32 9 6 9 8 -1 8 -9 0 -10 5 -2 19 5 11 10 31 10 46 0 14 3 24 8 22 4 -3 8 9 8 26 2 48 13 113 24 141 5 15 7 26 4 26 -4 0 -2 6 4 13 6 7 13 26 16 42 2 17 5 31 6 33 2 1 4 7 5 12 1 6 4 11 5 13 1 1 3 13 5 27 2 21 14 75 48 215 1 6 6 16 10 23 5 6 6 12 3 12 -3 0 -1 11 4 25 9 24 16 53 25 100 2 11 7 31 10 45 3 14 7 30 9 35 17 74 41 145 48 145 5 0 7 4 4 9 -3 5 4 35 15 67 11 33 22 66 24 74 2 8 14 44 28 80 13 36 22 71 20 78 -3 6 -1 12 4 12 4 0 9 10 9 23 2 35 37 155 53 182 3 6 7 19 8 30 2 11 8 31 13 45 5 14 11 35 13 47 2 12 6 26 10 29 4 4 7 18 7 31 0 13 5 23 12 23 6 0 9 2 6 6 -3 3 1 26 9 52 8 26 16 57 18 69 2 12 7 36 11 55 4 18 8 35 9 38 4 19 19 86 20 90 6 18 16 58 19 75 1 11 6 27 10 36 4 8 8 35 11 60 2 24 4 46 6 49 1 3 1 8 1 11 -1 3 5 27 13 52 8 26 12 47 9 47 -3 0 0 9 5 19 6 10 13 35 15 55 2 19 7 39 9 43 3 4 8 26 11 48 4 22 9 48 12 57 8 25 15 60 20 93 6 38 12 70 14 70 1 0 3 12 5 27 2 16 6 37 10 47 10 31 17 65 18 84 1 9 4 17 7 17 3 0 6 10 7 23 0 21 2 31 22 109 5 20 6 39 3 42 -3 4 0 6 6 6 6 0 9 7 6 15 -4 8 -2 15 3 15 5 0 10 6 10 13 0 6 10 33 21 59 12 26 22 52 22 57 0 6 4 11 8 11 4 0 8 10 9 22 1 11 6 24 10 27 4 3 8 11 8 16 1 12 23 94 32 115 3 8 5 19 4 23 -1 5 4 27 10 50 15 50 15 53 22 93 3 17 10 40 16 51 5 11 8 23 5 26 -3 2 2 21 10 41 8 20 18 55 21 78 4 23 11 50 16 60 5 9 9 21 8 25 -1 4 0 10 1 13 1 3 3 14 4 25 2 11 13 54 26 95 13 41 23 79 21 84 -1 4 4 14 10 22 6 8 9 14 6 14 -3 0 1 20 9 45 7 25 11 45 8 45 -3 0 0 9 6 21 7 11 14 33 16 47 3 15 7 34 11 42 9 23 10 25 42 166 16 71 36 147 45 168 14 35 23 88 30 192 2 22 6 46 10 52 3 6 2 13 -4 17 -6 4 -8 11 -4 16 3 5 7 22 10 37 2 15 6 41 9 57 2 17 7 47 11 69 9 61 13 78 18 84 3 2 1 13 -5 23 -5 11 -6 19 -1 19 5 0 9 6 9 13 2 24 13 123 19 172 4 28 8 77 10 110 9 191 15 266 25 315 6 30 12 64 13 75 2 11 6 31 9 45 7 27 20 423 18 508 -2 40 1 52 10 46 8 -5 9 -3 5 5 -5 7 -8 171 -8 364 0 204 -4 357 -10 364 -6 7 -5 14 2 18 6 3 8 11 4 16 -3 6 -8 42 -10 82 -3 40 -7 81 -9 92 -3 11 -11 49 -19 85 -8 36 -16 83 -17 105 -1 22 -4 44 -7 48 -2 4 -6 33 -8 65 -10 130 -19 193 -39 270 -7 28 -10 52 -7 52 4 0 3 4 -3 8 -5 4 -20 39 -33 77 -30 91 -45 125 -54 125 -5 0 -8 6 -8 13 0 15 -49 136 -50 122 0 -5 -8 6 -17 25 -9 19 -15 38 -15 43 1 4 -2 7 -8 7 -5 0 -10 5 -10 12 0 6 -13 40 -30 75 -16 34 -30 68 -30 73 0 6 -4 18 -9 28 -5 9 -19 44 -31 77 -24 66 -31 84 -53 135 -8 19 -18 46 -22 60 -5 14 -19 42 -31 62 -13 21 -24 41 -24 44 0 7 -43 60 -95 119 -46 51 -104 142 -97 150 4 5 2 5 -4 2 -6 -4 -16 5 -22 19 -7 13 -17 30 -22 37 -6 7 -38 50 -72 97 -56 78 -269 299 -310 321 -10 5 -18 16 -18 24 0 8 -5 15 -11 15 -7 0 -25 14 -41 30 -15 17 -30 30 -33 30 -6 0 -40 27 -71 58 -13 12 -28 22 -34 22 -5 0 -10 5 -10 10 0 6 -7 10 -15 10 -8 0 -15 5 -15 10 0 6 -7 10 -16 10 -8 0 -13 3 -10 8 2 4 -55 37 -127 72 -73 36 -135 70 -139 75 -4 6 -8 7 -8 2 0 -4 -19 5 -42 20 -24 14 -45 26 -48 25 -7 -1 -59 23 -227 104 -84 41 -159 74 -168 74 -8 0 -15 4 -15 9 0 5 -12 11 -27 14 -16 3 -41 11 -58 18 -16 7 -37 14 -45 15 -8 1 -37 9 -65 18 -72 23 -227 58 -233 52 -2 -3 -12 -1 -22 4 -10 5 -20 7 -23 3 -11 -11 -253 -1 -362 15 -111 16 -573 7 -790 -14 -33 -4 -70 -7 -82 -7 -13 -1 -23 -5 -23 -11 0 -5 -3 -7 -6 -3 -3 3 -18 1 -32 -4 -14 -5 -37 -12 -51 -14 -80 -12 -165 -29 -181 -35 -3 -1 -9 -2 -13 -1 -4 1 -18 -4 -30 -11 -12 -7 -24 -13 -27 -13 -3 -1 -16 -6 -30 -12 -14 -6 -42 -18 -62 -26 -21 -9 -38 -14 -38 -11 0 3 -16 -4 -35 -16 -19 -12 -40 -18 -46 -14 -7 4 -9 3 -6 -2 3 -5 -25 -20 -61 -32 -37 -13 -96 -37 -131 -54 -36 -17 -69 -31 -75 -33 -19 -4 -50 -16 -66 -25 -23 -14 -241 -120 -247 -120 -2 0 -11 -7 -19 -15 -8 -8 -21 -12 -29 -9 -8 4 -15 1 -15 -5 0 -7 -8 -15 -17 -18 -10 -4 -27 -15 -37 -25 -10 -9 -24 -15 -29 -11 -6 3 -7 1 -3 -5 4 -7 4 -12 -1 -12 -4 0 -24 -15 -45 -33 -20 -17 -60 -52 -89 -77 -29 -25 -76 -65 -104 -90 -28 -25 -73 -63 -99 -85 -26 -22 -61 -52 -79 -67 -17 -16 -35 -28 -39 -28 -4 0 -21 -13 -36 -30 -16 -16 -36 -30 -45 -30 -8 0 -18 -7 -21 -15 -3 -9 -21 -22 -40 -30 -19 -8 -38 -19 -41 -25 -4 -6 -11 -8 -16 -5 -5 4 -9 1 -9 -4 0 -6 -16 -17 -36 -26 -20 -8 -53 -28 -73 -45 -21 -16 -42 -26 -46 -22 -5 4 -5 2 -2 -4 8 -14 -36 -57 -48 -47 -4 5 -5 2 -1 -5 4 -7 1 -15 -8 -18 -9 -3 -16 -11 -16 -18 0 -6 -9 -18 -20 -26 -11 -8 -20 -20 -20 -27 0 -7 -4 -13 -8 -13 -5 0 -22 -19 -39 -42 -17 -24 -40 -53 -51 -64 -12 -12 -18 -25 -15 -28 4 -3 2 -6 -4 -6 -5 0 -27 -25 -48 -55 -20 -30 -42 -55 -47 -55 -5 0 -6 -5 -3 -10 3 -6 -1 -13 -9 -16 -9 -3 -16 -12 -16 -20 0 -8 -4 -14 -10 -14 -5 0 -10 -7 -10 -15 0 -8 -5 -15 -11 -15 -5 0 -7 5 -3 12 4 7 3 8 -4 4 -6 -4 -9 -12 -6 -19 3 -8 -8 -12 -30 -13 -21 0 -33 3 -29 9 4 6 0 8 -10 4 -12 -4 -14 -2 -10 11 6 15 4 15 -9 4 -14 -11 -17 -10 -23 7 -4 13 -11 18 -22 14 -12 -5 -15 -2 -10 10 3 9 3 16 -1 15 -4 -1 -19 4 -34 12 -23 11 -26 16 -17 33 8 13 8 17 1 13 -7 -4 -9 8 -7 36 3 24 5 51 6 61 0 10 5 15 12 11 9 -5 9 -4 1 5 -12 13 -7 51 7 51 4 0 6 9 4 19 -7 35 121 562 151 621 6 14 15 43 18 64 4 21 9 48 11 60 3 12 7 41 9 66 2 25 9 57 15 73 6 15 9 27 6 27 -2 0 1 15 6 33 27 89 36 140 54 306 3 30 8 58 11 63 3 4 0 8 -6 8 -8 0 -8 6 0 20 6 11 8 20 4 20 -3 0 -1 7 6 15 7 8 10 15 7 15 -3 0 0 20 7 44 8 25 11 47 8 50 -3 4 -1 6 4 6 5 0 11 14 12 31 1 17 7 40 13 50 5 11 7 19 3 19 -3 0 -1 7 6 15 6 8 9 19 5 25 -3 5 -2 10 2 10 5 0 9 8 10 18 1 9 3 24 5 32 4 14 27 116 33 150 2 8 4 15 5 15 1 0 3 11 4 25 0 14 5 31 10 39 7 10 6 12 -3 6 -10 -6 -11 -3 -3 11 6 11 12 33 15 49 3 17 9 41 12 55 4 14 7 31 7 38 1 6 4 12 8 12 4 0 7 6 7 13 0 6 12 49 26 94 14 45 22 84 19 87 -3 3 -1 6 4 6 5 0 10 12 11 27 0 15 6 29 12 31 6 2 9 7 6 12 -3 5 4 46 16 92 11 45 22 94 25 108 6 36 12 65 14 68 2 1 3 5 4 10 2 6 16 70 21 97 2 6 10 33 20 60 9 28 18 57 20 65 2 8 4 16 5 18 2 1 3 5 4 10 9 45 31 102 39 102 6 0 8 3 5 6 -5 5 62 179 92 239 6 11 12 29 15 40 7 33 59 180 65 185 5 4 17 39 35 100 2 5 16 42 38 95 6 17 12 32 13 35 0 3 10 27 22 53 12 27 22 53 22 58 0 5 5 9 12 9 6 0 9 3 5 6 -5 5 13 46 64 147 10 22 19 46 19 55 0 8 7 23 16 33 8 9 17 23 19 31 9 37 18 58 26 58 5 0 9 7 9 16 0 8 4 13 9 10 5 -4 7 4 3 16 -3 14 -1 19 6 14 8 -4 10 -2 6 7 -3 8 -1 18 5 22 6 3 11 15 11 26 0 10 5 19 11 19 5 0 8 4 5 9 -3 5 3 34 14 65 10 31 16 56 13 56 -3 0 0 6 6 13 6 8 8 16 5 20 -3 3 1 20 10 39 8 18 17 47 20 63 2 17 5 31 6 33 2 1 4 7 5 12 1 6 3 11 5 13 2 2 5 15 13 57 5 23 18 63 34 100 3 8 7 17 8 20 7 21 23 58 60 136 24 51 46 101 50 113 3 11 10 21 15 21 5 0 11 14 15 30 4 17 11 30 16 30 5 0 15 15 24 33 36 80 137 227 156 227 5 0 9 6 9 13 0 15 67 87 81 87 6 0 7 5 4 10 -3 6 1 13 9 16 9 3 13 10 10 15 -3 5 2 9 10 9 9 0 16 8 16 17 0 9 3 13 6 10 4 -3 20 12 35 33 16 22 33 40 37 40 4 0 16 14 26 30 9 17 21 28 27 25 5 -3 6 1 3 9 -4 11 2 19 17 25 13 5 20 10 16 10 -5 1 -2 7 5 15 56 59 138 155 159 187 15 21 29 35 33 32 3 -4 6 1 6 9 0 8 15 31 34 51 18 20 32 38 30 40 -2 2 16 25 41 52 25 26 45 49 45 51 0 5 38 51 67 81 12 13 20 23 17 23 -5 0 5 12 65 77 16 17 27 33 25 36 -2 2 11 19 29 38 18 19 36 41 40 49 9 21 94 142 112 161 8 9 15 20 15 26 0 18 140 154 152 147 6 -4 8 -3 4 4 -3 6 2 13 13 17 11 3 22 13 25 21 3 8 10 12 16 9 5 -3 10 -1 10 4 0 10 48 46 103 78 11 6 23 16 27 23 4 6 17 12 28 13 12 1 22 7 22 14 0 7 9 13 20 13 11 0 20 3 20 8 0 4 9 12 19 17 97 51 147 75 154 75 4 0 25 11 47 25 22 14 40 23 40 20 0 -2 15 4 33 15 17 11 40 20 49 20 9 0 18 4 20 8 4 12 241 129 289 143 21 7 39 16 39 21 0 5 4 7 9 3 6 -3 38 8 73 25 34 17 76 33 93 36 16 3 50 17 75 32 66 40 157 79 173 74 4 -1 7 2 7 7 0 5 10 12 23 16 12 4 27 9 32 11 27 9 92 26 110 27 11 1 22 5 25 9 3 4 17 8 30 10 14 2 30 6 35 10 6 3 26 9 46 12 20 3 42 8 50 10 8 3 25 8 39 10 14 3 43 10 64 15 22 5 44 8 48 5 4 -3 8 0 8 7 0 7 3 10 6 7 3 -3 29 0 57 8 29 8 68 17 87 20 19 3 41 7 48 9 41 14 131 20 317 19 189 0 246 -3 310 -17 11 -3 40 -8 65 -13 25 -4 47 -8 50 -9 28 -8 60 -15 85 -19 40 -7 152 -27 165 -31 3 -1 21 -5 40 -9 19 -5 46 -13 60 -19 14 -5 30 -11 35 -13 71 -19 161 -50 163 -56 2 -4 14 -8 26 -8 12 0 27 -5 33 -11 6 -6 17 -11 24 -13 8 -1 39 -11 69 -21 30 -11 58 -19 62 -20 3 0 10 -3 14 -7 4 -5 16 -8 26 -8 10 0 18 -5 18 -11 0 -5 5 -7 10 -4 6 3 10 1 10 -4 0 -6 10 -11 23 -11 13 0 28 -5 35 -12 6 -6 21 -13 32 -15 12 -2 38 -14 58 -28 20 -14 42 -25 48 -25 6 0 17 -7 24 -15 7 -8 21 -15 31 -15 11 0 19 -4 19 -10 0 -5 7 -10 15 -10 8 0 15 -4 15 -10 0 -5 7 -10 15 -10 8 0 15 -3 15 -8 0 -4 15 -13 33 -21 17 -7 50 -24 72 -36 22 -13 45 -24 50 -25 6 -1 17 -7 25 -14 8 -7 30 -18 48 -26 17 -7 32 -17 32 -22 0 -5 4 -7 9 -3 5 3 16 -2 24 -10 9 -8 20 -15 24 -15 5 0 19 -9 31 -20 12 -12 22 -18 22 -15 0 4 7 0 15 -7 25 -23 39 -33 68 -47 37 -20 93 -71 89 -83 -1 -5 2 -7 8 -3 5 3 10 2 10 -4 0 -5 9 -13 20 -16 11 -3 20 -13 20 -21 0 -8 4 -14 8 -14 10 0 82 -63 82 -72 0 -3 15 -21 33 -40 60 -63 128 -158 121 -169 -3 -5 0 -9 5 -9 6 0 11 -6 11 -12 0 -7 9 -24 20 -38 11 -14 20 -33 20 -42 0 -10 5 -18 10 -18 6 0 10 -5 10 -10 0 -6 16 -45 36 -88 58 -124 63 -136 58 -144 -3 -4 -1 -8 4 -8 8 0 14 -13 22 -48 1 -4 9 -15 18 -26 9 -10 16 -20 14 -22 -1 -2 19 -47 44 -99 25 -52 47 -102 48 -110 1 -8 5 -18 9 -21 4 -4 7 -17 7 -29 0 -11 4 -25 9 -30 10 -11 48 -159 55 -215 15 -114 20 -219 20 -410 -1 -177 -7 -345 -14 -345 -1 0 -3 -14 -6 -32 -2 -18 -8 -52 -14 -75 -6 -24 -13 -52 -15 -63 -16 -69 -76 -202 -130 -285 -89 -137 -264 -311 -351 -349 -11 -5 -27 -16 -36 -24 -19 -20 -180 -97 -201 -97 -9 0 -17 -4 -17 -10 0 -5 -16 -12 -35 -16 -19 -3 -35 -10 -35 -14 0 -8 -58 -26 -72 -22 -5 1 -8 -3 -8 -8 0 -6 -9 -10 -20 -10 -12 0 -34 -7 -50 -15 -16 -8 -37 -16 -47 -18 -10 -1 -24 -6 -30 -10 -7 -5 -13 -6 -13 -3 0 3 -12 -1 -27 -9 -15 -8 -30 -12 -35 -9 -4 3 -8 1 -8 -4 0 -5 -16 -13 -35 -19 -26 -8 -35 -8 -35 0 0 7 -4 6 -9 -2 -7 -11 -38 -15 -125 -17 -64 -2 -120 -5 -125 -8 -4 -3 -11 -3 -14 0 -3 4 -27 8 -53 10 -26 2 -50 7 -53 11 -3 5 -17 10 -31 11 -14 2 -26 8 -28 12 -2 5 -10 6 -18 3 -8 -3 -25 2 -39 11 -13 9 -31 16 -40 16 -8 0 -15 5 -15 10 0 6 -6 10 -14 10 -22 0 -66 26 -58 35 4 5 2 5 -5 2 -15 -9 -45 2 -37 14 3 5 -2 9 -10 9 -9 0 -16 5 -16 10 0 6 -6 10 -14 10 -8 0 -18 9 -21 20 -4 11 -11 18 -16 15 -5 -4 -9 1 -9 9 0 9 -5 16 -11 16 -5 0 -7 5 -4 10 3 6 1 10 -5 10 -6 0 -8 5 -5 10 3 6 -1 10 -11 10 -14 0 -14 3 -4 15 11 13 10 14 -3 10 -16 -7 -33 27 -23 44 4 5 2 11 -3 13 -5 1 -11 21 -13 43 -2 22 -7 43 -13 47 -6 5 -5 8 4 8 10 0 11 3 2 14 -7 8 -8 17 -3 20 5 3 8 17 7 31 -2 14 1 25 5 25 5 0 11 8 14 18 4 10 12 19 19 20 6 0 28 5 47 10 19 4 116 7 215 5 99 -2 251 -4 339 -6 193 -4 321 9 376 36 35 17 51 41 81 122 26 71 31 134 14 185 -5 14 -10 32 -10 40 -1 8 -7 28 -13 43 -7 16 -12 34 -12 40 0 7 -14 32 -30 57 -17 25 -38 59 -46 76 -8 17 -23 40 -32 50 -23 26 -102 124 -132 164 -27 37 -140 154 -140 145 0 -3 -9 3 -20 12 -28 24 -119 73 -135 73 -8 0 -15 5 -15 10 0 6 -9 10 -19 10 -11 0 -23 5 -26 10 -3 6 -15 10 -25 10 -10 0 -39 11 -64 24 -47 25 -98 37 -176 42 -25 1 -45 3 -45 4 0 1 -26 3 -58 5 -32 3 -62 7 -67 10 -4 3 -27 7 -50 10 -23 3 -50 10 -59 15 -29 15 -160 5 -256 -20 -49 -12 -101 -23 -115 -25 -55 -5 -105 -19 -180 -51 -43 -18 -81 -30 -84 -27 -3 4 -6 1 -6 -5 0 -7 -6 -12 -14 -12 -7 0 -19 -7 -26 -15 -7 -8 -19 -15 -27 -15 -8 0 -27 -9 -43 -20 -15 -11 -30 -17 -34 -13 -3 3 -6 2 -6 -4 0 -6 -13 -16 -29 -23 -16 -6 -32 -18 -35 -27 -3 -8 -10 -11 -16 -8 -5 3 -10 1 -10 -4 0 -6 -5 -11 -10 -11 -10 0 -19 -7 -85 -67 -17 -16 -34 -29 -39 -29 -4 -1 -28 -20 -52 -43 -25 -23 -49 -41 -54 -41 -6 0 -10 -3 -10 -7 0 -5 -22 -33 -50 -63 -69 -77 -70 -78 -70 -90 0 -5 -4 -10 -9 -10 -5 0 -13 -10 -17 -22 -4 -13 -17 -39 -30 -59 -13 -20 -20 -40 -17 -43 4 -3 1 -6 -5 -6 -7 0 -12 -7 -12 -15 0 -8 -4 -15 -10 -15 -5 0 -10 -3 -9 -7 2 -16 -14 -53 -22 -53 -5 0 -8 -3 -7 -7 1 -5 -3 -18 -10 -30 -7 -13 -10 -23 -7 -23 3 0 -1 -10 -9 -22 -8 -13 -17 -42 -21 -65 -4 -24 -11 -43 -16 -43 -6 0 -8 -4 -5 -8 3 -4 1 -26 -5 -48 -5 -21 -12 -57 -15 -79 -3 -22 -9 -56 -13 -75 -12 -57 -4 -348 13 -455 20 -134 23 -149 47 -230 23 -76 26 -86 28 -97 1 -5 12 -32 25 -62 13 -30 22 -57 18 -60 -3 -3 0 -6 7 -6 7 0 10 -4 7 -9 -4 -5 -3 -11 1 -13 5 -1 19 -23 32 -48 13 -25 34 -65 48 -91 13 -25 35 -57 48 -71 13 -14 21 -29 18 -32 -4 -3 -1 -6 6 -6 14 0 141 -126 141 -141 0 -5 5 -7 10 -4 6 3 10 2 10 -3 0 -6 36 -45 80 -88 96 -94 150 -144 150 -138 0 4 39 -28 64 -52 7 -6 21 -14 32 -18 11 -3 30 -15 42 -26 11 -11 27 -21 34 -22 12 -3 19 -7 52 -35 8 -7 19 -13 25 -13 5 0 11 -3 13 -7 2 -5 26 -19 53 -33 28 -14 52 -27 55 -30 3 -3 22 -14 43 -25 20 -11 37 -24 37 -29 0 -5 3 -6 6 -3 4 4 19 -2 33 -11 14 -10 38 -23 54 -30 15 -6 27 -16 27 -22 0 -5 7 -10 15 -10 9 0 27 -7 40 -16 35 -23 168 -56 233 -57 12 -1 22 -3 22 -6 0 -9 99 -15 253 -15 75 -1 137 -4 137 -7 0 -4 18 -7 40 -7 22 0 40 2 40 6 0 4 11 7 25 7 14 0 25 -4 25 -8 0 -5 3 -6 8 -3 4 2 59 7 122 10 135 7 163 10 178 20 7 4 12 1 12 -6 0 -8 3 -9 8 -3 4 6 18 11 32 12 23 2 47 6 95 18 11 2 63 14 115 25 52 11 106 23 120 26 14 4 31 7 38 7 6 0 12 4 12 9 0 4 3 7 8 6 8 -3 88 19 112 31 8 4 36 14 63 22 26 7 47 16 47 19 0 4 23 21 51 40 28 18 62 43 76 56 13 12 43 33 66 45 23 11 44 24 47 28 3 3 35 26 73 50 37 24 67 48 67 54 0 6 3 8 6 4 7 -6 81 30 90 44 3 5 10 7 15 4 5 -4 9 -1 9 4 0 6 6 11 14 11 7 0 25 9 39 20 14 11 32 20 41 20 9 0 16 3 16 8 0 4 17 16 37 27 20 11 42 25 48 32 7 6 28 20 48 31 20 10 34 21 32 24 -3 3 7 11 23 19 72 37 115 68 189 139 25 25 43 38 39 30 -4 -8 0 -6 8 5 50 62 61 73 69 68 6 -4 7 -1 3 6 -5 7 -1 20 7 29 27 30 82 117 96 150 7 18 17 32 20 32 4 0 13 16 21 35 8 19 17 35 21 35 4 0 12 14 18 30 5 17 15 30 21 30 6 0 9 4 6 9 -3 5 1 14 9 21 8 7 15 16 15 21 0 8 8 18 55 70 8 9 15 21 15 27 0 7 5 12 11 12 5 0 7 5 4 10 -3 6 -2 10 3 10 5 0 15 14 22 30 7 17 17 30 22 30 5 0 7 4 3 9 -3 5 -1 12 4 15 11 7 126 239 123 249 -1 4 5 10 13 13 8 3 13 10 10 14 -3 5 2 16 11 24 8 9 12 16 8 16 -4 0 0 8 8 18 13 15 121 223 128 247 1 6 6 19 10 31 5 11 10 35 13 52 3 17 7 34 10 39 12 20 34 210 43 378 4 89 12 185 14 195 1 3 2 42 2 88 0 60 3 80 11 75 9 -5 9 -3 1 8 -6 8 -10 73 -10 161 1 82 -1 148 -4 148 -4 0 -6 10 -7 23 0 27 -10 132 -18 207 -4 30 -13 89 -22 130 -8 41 -19 98 -24 125 -6 28 -13 57 -16 65 -3 8 -6 24 -7 35 -1 11 -5 26 -9 33 -5 6 -5 12 -1 12 4 0 0 8 -9 18 -10 10 -14 21 -11 24 3 3 -4 28 -16 54 -13 26 -23 53 -24 59 -4 21 -51 115 -58 115 -5 0 -8 4 -8 10 0 5 -16 45 -36 87 -20 43 -45 100 -55 127 -29 73 -102 203 -140 250 -38 48 -89 116 -89 121 0 3 -10 17 -22 30 -66 69 -88 95 -88 105 0 6 -4 8 -10 5 -5 -3 -10 -2 -10 4 0 5 -19 28 -42 50 -22 23 -39 41 -36 41 3 0 -8 15 -25 34 -103 109 -132 142 -130 148 2 5 -4 8 -12 8 -8 0 -15 3 -15 8 0 4 -18 27 -40 51 -22 24 -40 47 -40 52 0 5 -7 9 -15 9 -8 0 -15 5 -15 10 0 6 -13 24 -30 40 -16 16 -30 32 -30 35 0 4 -6 12 -12 19 -7 7 -38 41 -68 76 -30 34 -70 79 -90 100 -19 21 -57 63 -84 93 -28 31 -53 54 -58 51 -4 -3 -8 0 -8 6 0 12 -19 34 -35 41 -6 2 -42 25 -82 52 -39 26 -76 47 -82 47 -6 0 -11 5 -11 11 0 5 -4 8 -9 5 -5 -4 -11 -3 -13 1 -1 5 -25 19 -53 32 -57 28 -53 26 -82 36 -13 4 -20 12 -16 18 3 6 1 7 -5 3 -9 -6 -32 5 -111 49 -11 6 -26 17 -35 24 -9 7 -16 10 -16 6 0 -5 -8 -1 -17 7 -10 8 -49 30 -88 49 -38 19 -71 37 -73 42 -2 4 -10 7 -18 7 -13 0 -104 40 -114 50 -3 3 -18 10 -35 16 -71 28 -140 60 -143 67 -2 4 -12 7 -23 7 -10 0 -19 5 -19 10 0 6 -6 10 -13 10 -18 0 -67 24 -67 33 0 4 -11 7 -25 7 -16 0 -25 6 -25 16 0 8 -5 12 -10 9 -6 -3 -23 3 -39 15 -17 11 -33 20 -38 19 -18 -3 -34 1 -30 9 3 4 -11 8 -31 9 -19 1 -39 8 -43 15 -4 7 -11 10 -14 6 -3 -3 -27 1 -53 9 -69 21 -81 24 -142 29 -30 3 -72 10 -94 15 -21 6 -40 8 -43 6 -2 -3 -28 1 -56 8 -29 8 -72 16 -97 20 -25 4 -58 9 -75 11 -16 3 -48 6 -70 8 -68 7 -149 17 -175 23 -36 9 -704 16 -712 8z m-1583 -8620 c28 -4 59 -8 70 -10 11 -2 38 -6 60 -10 67 -9 99 -17 113 -27 8 -7 12 -7 12 1 0 7 4 10 9 7 5 -3 24 -8 42 -11 19 -3 59 -10 89 -15 30 -6 66 -12 80 -14 14 -2 36 -8 50 -14 14 -5 30 -10 35 -12 6 -1 17 -7 25 -15 23 -19 100 -57 100 -48 0 5 4 4 8 -2 9 -13 42 -34 65 -41 9 -4 17 -11 17 -16 0 -5 5 -6 10 -3 6 3 10 1 10 -4 0 -6 9 -11 20 -11 11 0 20 -4 20 -10 0 -5 7 -10 15 -10 9 0 18 -7 21 -15 4 -8 10 -12 15 -9 5 3 12 -2 15 -10 3 -9 10 -13 15 -11 4 3 33 -19 64 -50 31 -30 60 -55 66 -55 6 0 7 -4 4 -10 -3 -5 2 -10 11 -10 10 0 15 -3 11 -6 -8 -8 18 -34 34 -34 7 0 10 -2 7 -5 -3 -3 23 -35 58 -70 35 -36 64 -70 64 -77 0 -6 3 -9 6 -5 4 3 22 -13 41 -36 19 -23 43 -52 54 -65 10 -12 19 -24 19 -26 0 -3 18 -22 40 -44 22 -21 40 -44 40 -50 0 -7 5 -12 10 -12 6 0 16 -11 22 -25 6 -14 17 -25 25 -25 7 0 13 -4 13 -9 0 -5 7 -16 15 -24 15 -15 40 -55 76 -121 12 -22 28 -46 35 -54 8 -7 17 -24 20 -38 3 -13 10 -24 15 -24 5 0 9 -6 9 -14 0 -8 4 -16 9 -18 22 -8 138 -252 156 -328 4 -17 18 -58 25 -75 10 -23 41 -147 46 -185 1 -14 6 -45 9 -70 4 -25 8 -67 10 -94 5 -62 14 -119 20 -124 3 -3 0 -11 -6 -19 -6 -7 -8 -13 -3 -13 5 0 9 -19 10 -43 0 -55 18 -192 24 -192 1 0 4 -11 6 -25 10 -52 9 -147 -2 -215 -7 -38 -10 -73 -8 -77 2 -4 0 -9 -5 -12 -5 -3 -7 -15 -4 -26 3 -11 1 -20 -3 -20 -5 0 -9 -48 -8 -108 0 -59 -4 -113 -9 -119 -5 -7 -6 -13 -1 -13 10 0 10 -73 -1 -89 -3 -6 -3 -11 2 -11 4 0 7 -37 6 -82 -7 -261 -13 -416 -18 -438 -10 -49 -15 -107 -20 -225 -2 -66 -7 -133 -10 -150 -11 -63 -49 -220 -54 -225 -3 -3 -7 -21 -7 -40 -1 -19 -4 -57 -8 -85 -7 -48 -10 -66 -22 -130 -4 -16 -7 -36 -7 -42 0 -7 -3 -13 -7 -13 -3 0 -6 -8 -7 -17 -2 -23 -11 -78 -13 -78 -1 0 -3 -11 -5 -25 -5 -43 -22 -135 -25 -135 -1 0 -3 -9 -5 -20 -4 -30 -13 -76 -30 -152 -9 -37 -18 -84 -20 -103 -6 -47 -18 -105 -25 -127 -1 -5 -2 -12 -1 -17 1 -5 -1 -16 -5 -25 -4 -9 -9 -27 -11 -41 -2 -14 -11 -47 -20 -75 -9 -27 -18 -54 -19 -60 -13 -60 -36 -163 -39 -175 -2 -8 -11 -35 -20 -60 -9 -25 -17 -49 -19 -55 -2 -5 -8 -23 -14 -38 -7 -16 -12 -30 -12 -32 0 -2 -5 -16 -12 -32 -6 -15 -12 -34 -14 -41 -1 -8 -6 -21 -10 -30 -4 -9 -9 -24 -10 -32 -2 -8 -10 -46 -19 -85 -9 -38 -19 -81 -21 -95 -3 -14 -7 -32 -10 -40 -3 -8 -8 -26 -10 -40 -3 -14 -12 -52 -21 -85 -8 -33 -17 -76 -19 -95 -6 -48 -55 -244 -63 -250 -5 -5 -10 -19 -15 -45 -1 -5 -4 -14 -7 -20 -6 -10 -18 -52 -25 -93 -3 -13 -12 -44 -21 -70 -8 -26 -17 -54 -18 -62 -2 -8 -4 -15 -5 -15 -1 0 -3 -9 -4 -20 -2 -11 -16 -67 -31 -125 -15 -58 -28 -111 -28 -117 0 -7 -3 -13 -7 -13 -4 0 -7 -6 -7 -12 -1 -7 -20 -105 -42 -218 -44 -218 -50 -249 -56 -320 -2 -25 -6 -52 -8 -60 -2 -8 -8 -37 -12 -65 -10 -57 -12 -63 -15 -70 -1 -3 -3 -8 -4 -12 -1 -5 -10 -33 -21 -63 -11 -30 -20 -57 -20 -60 -9 -35 -21 -71 -34 -100 -8 -19 -15 -37 -16 -40 -2 -5 -10 -26 -41 -105 -9 -22 -20 -48 -25 -57 -5 -10 -9 -23 -9 -29 0 -6 -6 -25 -14 -42 -16 -36 -30 -88 -28 -100 1 -4 -3 -18 -10 -30 -6 -12 -12 -35 -14 -52 -1 -16 -7 -31 -13 -33 -6 -2 -9 -8 -6 -13 3 -4 -3 -48 -14 -96 -20 -85 -26 -119 -37 -193 -9 -58 -71 -336 -80 -360 -4 -8 -8 -28 -9 -45 -4 -29 -11 -64 -16 -75 -1 -3 -3 -9 -3 -15 -3 -23 -29 -75 -38 -75 -5 0 -6 -4 -3 -10 3 -5 2 -10 -4 -10 -20 0 -71 -130 -85 -215 -14 -88 -19 -111 -26 -125 -5 -9 -11 -36 -15 -60 -4 -25 -10 -49 -13 -55 -4 -5 -8 -19 -9 -30 -7 -47 -35 -192 -43 -220 -5 -16 -12 -41 -14 -55 -3 -14 -12 -45 -20 -70 -8 -25 -31 -98 -51 -163 -20 -64 -40 -115 -43 -113 -4 2 -8 -12 -9 -31 -1 -19 -6 -40 -11 -46 -7 -10 -16 -36 -37 -107 -1 -3 -7 -18 -14 -35 -7 -16 -14 -38 -16 -48 -2 -9 -6 -21 -9 -26 -3 -5 -8 -26 -12 -47 -3 -22 -14 -64 -25 -94 -10 -30 -21 -71 -24 -90 -3 -19 -10 -51 -15 -70 -5 -19 -12 -55 -15 -80 -4 -25 -11 -50 -16 -56 -5 -6 -7 -13 -4 -16 3 -2 -9 -40 -26 -84 -17 -43 -33 -88 -35 -98 -2 -11 -7 -22 -11 -25 -5 -3 -9 -17 -11 -31 -2 -14 -10 -38 -18 -54 -8 -16 -14 -37 -14 -46 0 -9 -3 -20 -7 -24 -4 -3 -8 -12 -9 -19 -9 -55 -15 -72 -24 -75 -5 -2 -8 -7 -5 -12 3 -4 -2 -30 -11 -56 -8 -27 -17 -60 -20 -74 -3 -14 -7 -32 -9 -40 -2 -8 -4 -15 -5 -15 -5 0 -19 -84 -25 -155 -2 -30 -7 -66 -10 -80 -3 -14 -7 -38 -10 -55 -2 -16 -6 -39 -9 -50 -10 -43 -20 -121 -18 -132 2 -7 -1 -13 -5 -13 -4 0 -7 -17 -7 -37 1 -21 -3 -44 -8 -50 -6 -7 -8 -13 -6 -13 4 0 -9 -80 -27 -165 -3 -16 -17 -64 -30 -105 -13 -42 -26 -92 -30 -113 -4 -20 -12 -37 -19 -37 -8 0 -8 -2 1 -8 8 -5 6 -17 -7 -45 -10 -20 -17 -37 -15 -37 2 0 -7 -27 -21 -60 -13 -33 -25 -68 -27 -77 -2 -10 -9 -28 -15 -40 -7 -13 -10 -23 -6 -23 3 0 2 -6 -4 -12 -10 -12 -37 -102 -48 -158 -2 -14 -7 -32 -11 -40 -3 -8 -8 -24 -10 -35 -2 -11 -9 -38 -15 -60 -6 -22 -12 -43 -14 -47 -1 -5 -2 -9 -3 -10 -2 -2 -4 -14 -7 -28 -2 -14 -11 -56 -20 -95 -8 -38 -17 -81 -20 -95 -8 -41 -14 -63 -29 -100 -20 -52 -28 -74 -30 -85 -4 -16 -32 -97 -46 -130 -6 -16 -13 -40 -15 -53 -1 -13 -8 -30 -15 -38 -6 -8 -9 -17 -6 -21 3 -3 0 -18 -9 -34 -8 -16 -14 -31 -14 -34 1 -13 -14 -61 -26 -84 -8 -14 -14 -33 -14 -42 0 -9 -3 -19 -7 -23 -4 -3 -8 -12 -9 -19 -1 -7 -12 -39 -24 -72 -18 -50 -48 -150 -65 -215 -2 -8 -4 -16 -5 -17 -2 -2 -4 -7 -5 -13 -1 -5 -3 -11 -4 -12 -2 -2 -4 -13 -7 -26 -2 -13 -11 -36 -19 -52 -8 -16 -15 -36 -15 -45 0 -8 -4 -23 -10 -33 -9 -15 -33 -100 -32 -112 0 -3 -6 -12 -14 -21 -8 -9 -11 -18 -8 -22 3 -3 0 -23 -7 -44 -7 -21 -12 -40 -12 -43 0 -3 -3 -15 -8 -28 -5 -12 -11 -35 -14 -50 -8 -38 -13 -57 -15 -57 -1 0 -3 -7 -5 -15 -7 -27 -23 -84 -40 -140 -19 -67 -23 -83 -31 -135 -3 -22 -9 -44 -13 -50 -4 -5 -8 -21 -9 -35 -1 -13 -5 -34 -11 -45 -5 -11 -15 -47 -22 -80 -7 -33 -14 -64 -15 -70 -9 -30 -36 -144 -41 -165 -9 -44 -11 -55 -13 -57 -2 -2 -3 -6 -4 -10 -17 -71 -26 -110 -31 -143 -12 -81 -14 -87 -51 -185 -4 -11 -8 -24 -9 -30 -2 -5 -23 -62 -48 -125 -42 -110 -204 -601 -213 -645 -7 -41 -38 -137 -45 -141 -5 -3 -9 -14 -9 -25 0 -10 -4 -19 -8 -19 -4 0 -8 -8 -9 -17 -1 -10 -7 -31 -14 -48 -7 -16 -13 -32 -14 -35 -2 -8 -45 -151 -55 -183 -6 -17 -6 -25 0 -22 5 3 3 -12 -5 -35 -8 -22 -14 -43 -14 -45 1 -5 -13 -83 -16 -95 -1 -3 -5 -23 -10 -45 -4 -22 -11 -47 -16 -56 -4 -8 -10 -33 -13 -55 -3 -21 -13 -66 -21 -99 -20 -76 -24 -93 -31 -129 -2 -16 -7 -33 -10 -38 -5 -8 -10 -29 -19 -73 -6 -30 -13 -60 -15 -62 -3 -4 -4 -9 -13 -58 -11 -57 -50 -169 -62 -177 -6 -5 -5 -8 3 -8 10 0 9 -6 -2 -27 -8 -16 -20 -48 -27 -73 -22 -79 -84 -267 -111 -336 -11 -29 -21 -58 -22 -65 -2 -8 -6 -21 -9 -29 -3 -8 -13 -37 -23 -65 -10 -27 -21 -54 -24 -60 -9 -12 -68 -184 -73 -211 -2 -11 -7 -26 -10 -34 -3 -8 -17 -55 -31 -105 -13 -49 -35 -126 -49 -170 -14 -44 -27 -98 -30 -120 -4 -22 -11 -65 -18 -95 -6 -30 -12 -64 -14 -75 -7 -44 -17 -87 -27 -115 -5 -13 -17 -65 -43 -193 -2 -10 -7 -27 -10 -37 -3 -10 -8 -27 -10 -37 -2 -10 -11 -40 -19 -68 -9 -27 -16 -60 -16 -73 0 -15 -4 -21 -12 -16 -7 4 -8 3 -4 -4 4 -6 1 -31 -5 -54 -7 -24 -13 -48 -15 -55 -1 -6 -8 -29 -15 -50 -7 -21 -12 -41 -11 -45 1 -5 -2 -8 -6 -8 -4 0 -8 -8 -9 -18 -2 -27 -44 -155 -56 -169 -5 -7 -7 -13 -3 -13 4 0 0 -13 -8 -29 -9 -16 -12 -31 -9 -35 4 -3 2 -6 -3 -6 -5 0 -10 -15 -11 -32 -2 -18 -6 -34 -11 -36 -4 -1 -7 -16 -6 -32 1 -17 -2 -33 -7 -36 -5 -3 -7 -10 -4 -15 4 -5 3 -15 -2 -21 -8 -14 -8 -15 -18 -62 -3 -16 -8 -33 -11 -38 -3 -5 -8 -21 -11 -36 -7 -35 -9 -44 -16 -62 -13 -33 -38 -116 -36 -124 0 -5 -5 -12 -12 -17 -7 -4 -14 -15 -15 -25 -2 -9 -8 -20 -14 -24 -7 -4 -12 -11 -11 -16 1 -20 -12 -54 -20 -54 -5 0 -8 -3 -7 -7 4 -14 -13 -53 -22 -53 -5 0 -7 -7 -4 -15 4 -8 1 -15 -6 -15 -6 0 -9 -4 -5 -9 3 -5 -1 -15 -8 -23 -7 -7 -14 -17 -16 -23 -9 -42 -14 -55 -23 -55 -5 0 -7 -4 -3 -9 3 -5 1 -12 -5 -16 -6 -4 -8 -10 -5 -15 3 -5 -5 -19 -17 -31 -13 -12 -17 -18 -10 -14 11 6 12 3 2 -14 -6 -13 -16 -19 -23 -14 -9 5 -9 3 0 -9 7 -8 10 -18 6 -21 -12 -12 -40 -102 -36 -114 3 -7 0 -13 -6 -13 -6 0 -10 -3 -10 -7 4 -22 -2 -54 -9 -49 -4 2 -7 -11 -6 -30 1 -19 -4 -41 -12 -48 -7 -8 -10 -16 -7 -20 4 -3 1 -6 -5 -6 -7 0 -12 -7 -12 -15 0 -14 -12 -20 -33 -16 -5 1 -6 -3 -2 -9 10 -16 -37 -30 -54 -16 -11 8 -13 8 -8 0 8 -13 -23 -29 -32 -17 -5 7 -95 9 -111 3 -12 -4 -70 -4 -70 0 0 6 -159 5 -175 -1 -5 -2 -21 3 -34 10 -13 7 -21 9 -17 3 3 -6 -25 -10 -77 -10 -45 -1 -122 -2 -172 -3 -49 -1 -103 -1 -120 0 -16 0 -70 1 -120 1 -49 0 -99 2 -110 4 -11 3 -23 5 -27 5 -5 1 -8 8 -8 16 0 8 -4 15 -9 15 -5 0 -10 213 -10 507 -1 279 -3 509 -6 511 -3 3 0 11 6 19 6 7 8 13 3 13 -10 0 -10 92 0 109 4 6 3 11 -3 11 -10 0 -9 25 2 36 3 4 4 11 0 17 -6 9 -12 153 -16 390 -2 81 1 127 8 127 6 0 5 3 -1 8 -8 5 -12 73 -12 225 -1 119 -2 220 -3 225 -1 4 -1 11 0 16 3 12 3 368 0 381 -1 6 0 15 1 20 3 13 2 1056 0 1070 -1 6 -1 15 0 20 4 20 -1 198 -6 206 -2 4 0 10 5 13 4 3 5 23 2 43 -4 21 -4 49 -1 63 4 14 3 35 -1 48 -5 12 -5 22 1 22 5 0 5 12 0 30 -5 19 -5 30 1 30 6 0 8 4 5 9 -8 12 -9 397 -2 410 4 5 2 12 -4 16 -6 4 -8 11 -4 16 3 6 6 937 6 2069 1 1486 4 2057 12 2053 7 -5 7 -2 0 8 -17 20 -17 522 0 512 8 -5 8 -3 0 8 -8 9 -12 77 -13 206 0 105 -1 195 -2 200 -1 4 -1 10 0 13 8 24 4 230 -4 230 -5 0 -1 7 9 15 11 8 15 15 9 15 -8 0 -11 63 -10 220 1 126 -2 220 -7 220 -5 0 -1 9 9 20 18 20 18 21 0 14 -13 -6 -16 -4 -10 6 4 7 8 116 8 241 -1 164 3 229 11 229 8 0 8 3 0 8 -16 10 -16 765 -1 755 9 -5 9 -3 1 8 -15 17 -17 1474 -3 1501 5 9 5 19 1 22 -5 3 -8 22 -6 43 1 21 6 146 9 278 4 132 8 249 10 260 2 11 15 72 29 136 14 63 28 161 31 216 6 104 10 137 20 152 3 5 1 12 -5 16 -6 4 -7 12 -3 18 4 6 8 34 9 62 1 27 3 50 4 50 3 0 7 61 13 199 3 71 9 131 14 135 4 3 9 15 10 26 0 11 4 45 8 75 3 30 7 67 9 81 2 14 7 32 11 39 5 9 4 11 -4 6 -8 -5 -10 -1 -7 16 5 21 16 121 18 158 0 8 5 21 11 28 6 8 6 12 -2 12 -7 0 -8 8 -1 24 4 13 9 68 10 122 1 110 5 154 25 264 2 14 7 54 11 90 9 86 8 83 17 97 4 6 3 14 -1 17 -7 4 -9 51 -2 51 0 0 3 41 5 90 6 109 12 182 19 214 3 14 8 45 11 70 3 25 7 57 10 71 3 14 7 37 10 52 2 15 7 38 11 50 4 13 7 33 5 45 -1 13 0 27 4 33 5 8 12 76 17 170 1 8 6 18 12 22 8 6 8 8 0 8 -7 0 -10 15 -7 38 2 20 6 66 8 102 9 108 13 155 15 155 0 0 3 20 5 45 7 81 19 140 36 171 12 23 14 42 23 169 5 58 12 105 16 105 1 0 3 11 5 25 1 14 8 49 14 79 6 29 11 69 11 87 0 20 5 34 13 35 9 0 9 2 -1 6 -6 2 -10 9 -6 14 3 5 8 44 10 87 3 42 7 88 11 102 3 14 7 45 8 70 1 25 6 65 10 90 4 25 8 65 11 90 3 43 7 70 19 135 3 17 7 44 10 60 3 17 7 41 10 55 3 14 7 43 10 65 3 22 7 47 10 55 4 16 15 94 20 144 1 16 9 32 16 37 8 5 9 9 3 9 -8 0 -8 11 -1 40 6 22 15 40 20 40 4 0 5 5 2 10 -4 6 -3 19 1 28 4 9 8 22 10 27 15 63 57 175 64 175 5 0 7 7 4 15 -4 8 -2 15 3 15 5 0 10 6 10 13 0 6 14 47 31 90 18 43 32 85 32 93 0 8 5 14 10 14 6 0 10 10 10 23 0 12 7 33 16 45 8 12 13 22 10 22 -5 0 16 66 41 130 4 8 7 17 7 20 1 5 31 89 43 120 4 8 7 17 8 20 8 26 49 115 96 210 31 63 57 119 57 124 0 5 4 12 9 15 5 3 36 60 68 126 32 66 62 121 66 123 4 2 5 10 2 18 -3 8 -1 14 4 14 5 0 9 10 10 22 1 11 6 24 11 27 5 3 19 26 31 51 40 85 130 219 153 228 4 2 8 10 8 18 0 8 7 17 15 20 8 4 15 11 15 16 0 15 62 108 72 108 4 0 7 3 6 8 -2 10 35 86 45 90 4 2 7 10 7 18 0 8 5 14 10 14 6 0 9 3 9 8 -3 19 3 33 27 61 14 17 24 31 21 31 -3 0 13 18 34 40 22 22 39 45 39 51 0 5 5 7 10 4 6 -3 10 1 10 9 0 9 4 16 8 16 5 0 23 20 42 45 18 24 37 42 42 39 4 -3 8 0 8 6 0 7 21 31 47 53 26 23 58 53 72 66 14 13 36 30 49 38 12 9 22 22 22 29 0 8 4 14 9 14 5 0 40 45 77 100 40 60 116 151 186 223 66 67 148 153 184 191 35 38 64 66 64 63 0 -3 15 7 32 24 18 16 38 29 45 29 7 0 13 5 13 11 0 5 5 7 10 4 6 -3 10 -2 10 4 0 5 14 12 30 16 17 4 30 11 30 17 0 6 3 9 6 5 6 -6 32 13 74 56 15 15 31 27 35 27 4 0 14 8 22 18 8 9 11 11 7 3 -5 -9 2 -8 19 5 15 10 27 22 27 27 0 4 5 7 10 7 6 0 52 24 103 52 50 29 95 52 100 50 4 -1 7 2 7 7 0 4 23 19 50 32 28 13 50 27 50 31 0 5 8 8 17 8 9 0 25 8 36 18 11 9 17 11 12 3 -5 -9 -1 -9 16 3 24 15 94 43 134 52 23 6 25 7 80 22 22 6 58 13 80 16 49 7 91 14 130 25 17 4 42 7 58 7 15 -1 27 1 27 5 0 7 2 7 93 13 38 2 70 6 72 8 6 6 380 1 430 -7z m-3540 -525 c3 -6 -1 -7 -9 -4 -18 7 -21 14 -7 14 6 0 13 -4 16 -10z m-10334 -279 c13 7 472 8 1467 4 796 -3 1452 -6 1457 -6 6 0 51 0 100 0 104 2 236 -5 277 -14 17 -4 34 -18 42 -34 17 -32 26 -181 11 -181 -5 0 -3 -5 5 -10 12 -8 13 -13 3 -29 -6 -10 -9 -22 -5 -25 9 -10 11 -31 17 -176 2 -74 7 -157 10 -185 4 -27 8 -70 10 -95 2 -25 5 -46 6 -47 5 -8 4 -31 -3 -50 -4 -13 -4 -23 0 -23 4 0 7 -15 7 -32 -1 -18 3 -51 8 -73 8 -40 14 -76 23 -150 3 -22 7 -116 9 -210 3 -156 10 -266 20 -355 9 -73 17 -157 20 -216 1 -34 5 -70 9 -80 3 -11 8 -41 12 -69 3 -27 8 -54 11 -58 3 -4 9 -79 13 -165 5 -86 11 -177 14 -202 2 -25 7 -81 11 -125 3 -44 8 -99 10 -122 2 -24 -1 -46 -7 -49 -7 -4 -7 -9 0 -13 5 -3 12 -35 15 -71 3 -36 10 -90 16 -120 6 -30 12 -66 15 -80 9 -50 16 -137 22 -250 6 -139 8 -153 24 -210 8 -25 13 -48 12 -51 0 -3 5 -26 12 -50 7 -24 14 -80 16 -124 4 -151 8 -240 10 -240 3 0 8 -35 14 -106 8 -84 17 -154 30 -229 3 -14 7 -50 11 -81 3 -31 7 -66 10 -77 2 -11 5 -103 6 -203 2 -101 6 -206 11 -234 11 -76 19 -160 23 -265 7 -152 16 -244 31 -293 9 -31 14 -83 19 -210 2 -67 6 -131 9 -142 5 -26 8 -72 7 -103 -1 -15 -5 -21 -13 -16 -7 4 -8 3 -4 -5 12 -18 -4 -53 -21 -47 -10 4 -13 2 -10 -7 6 -17 -84 -20 -95 -3 -6 8 -8 8 -8 -1 0 -14 -74 -9 -189 13 -8 2 -26 6 -40 9 -14 4 -28 7 -31 7 -3 0 -14 4 -26 8 -11 5 -45 11 -75 15 -30 3 -72 11 -93 17 -22 5 -51 11 -65 13 -14 2 -27 4 -28 4 -2 1 -6 2 -10 2 -5 1 -19 6 -33 11 -14 5 -36 11 -50 13 -14 2 -36 7 -50 10 -14 3 -43 8 -65 11 -22 2 -56 7 -75 10 -19 4 -77 8 -128 10 -51 1 -97 6 -102 9 -6 3 -10 2 -10 -4 0 -10 -25 -9 -36 2 -4 3 -11 4 -15 1 -12 -7 -448 -6 -459 1 -6 4 -10 2 -10 -3 0 -10 -50 -10 -67 1 -6 4 -14 3 -17 -2 -3 -5 -23 -9 -43 -10 -21 0 -60 -2 -88 -5 -27 -2 -124 -6 -215 -7 -128 -2 -177 -6 -218 -20 -30 -10 -57 -18 -60 -18 -4 1 -9 0 -12 -1 -11 -4 -47 -11 -80 -15 -45 -5 -156 -17 -195 -21 -16 -1 -30 -3 -30 -4 0 -1 -18 -4 -40 -6 -105 -9 -150 -13 -152 -15 -2 -1 -12 -2 -22 -3 -11 0 -23 -4 -27 -8 -4 -5 -23 -8 -41 -8 -19 0 -42 -4 -51 -9 -20 -10 -109 -20 -117 -13 -3 3 -17 7 -32 8 -58 6 -75 59 -98 299 -10 110 -15 150 -25 200 -5 28 -12 66 -14 85 -3 19 -8 46 -11 60 -7 35 -14 92 -21 180 -6 80 -11 137 -19 210 -2 25 -7 92 -9 150 -7 136 -13 180 -38 265 -11 39 -22 86 -23 105 -2 19 -4 35 -5 35 -1 0 -4 27 -6 60 -4 83 -11 142 -23 198 -6 27 -10 51 -10 55 1 4 0 9 -1 12 -6 16 -21 125 -22 160 -1 8 -4 20 -7 25 -4 6 -7 29 -6 52 0 24 -2 43 -5 43 -3 0 -6 12 -6 28 -1 15 -4 70 -8 122 -4 52 -9 122 -11 155 -4 61 -9 90 -21 128 -4 12 -8 33 -10 47 -1 14 -3 25 -4 25 -1 0 -3 86 -6 190 -3 167 -10 310 -14 310 -1 0 -2 17 -4 37 -2 25 1 35 8 31 7 -5 7 -2 0 8 -7 8 -15 32 -18 54 -11 71 -23 126 -30 132 -3 3 -1 12 5 20 9 9 8 13 0 13 -14 0 -10 62 4 72 6 5 5 8 -3 8 -7 0 -10 5 -7 10 9 14 13 200 4 195 -7 -5 -24 73 -35 160 -3 28 -8 53 -11 58 -2 4 1 7 7 7 6 0 8 5 4 12 -11 18 -11 62 1 70 6 5 5 8 -2 8 -9 0 -10 7 -3 24 5 13 6 27 2 30 -3 4 -7 41 -8 82 -1 41 -5 107 -9 147 -4 40 -8 94 -10 121 -10 121 -16 166 -35 236 -7 25 -14 56 -17 69 -2 14 -6 28 -9 33 -3 4 0 8 6 8 7 0 8 5 3 13 -4 6 -8 55 -9 107 -1 111 -6 143 -35 230 -28 86 -27 78 -30 360 -1 135 -5 255 -10 268 -15 40 -14 158 1 177 9 10 16 13 18 6 3 -8 9 -8 23 0z m-2021 -16 c0 -5 4 -5 10 1 7 7 29 8 55 4 25 -4 47 -5 49 -2 3 2 241 4 531 4 385 0 534 -3 555 -12 29 -12 50 -52 50 -95 0 -12 3 -25 7 -29 7 -7 8 -13 18 -90 4 -27 9 -58 11 -70 3 -12 7 -59 10 -106 5 -91 10 -164 18 -245 3 -27 8 -97 11 -155 3 -58 8 -113 11 -122 8 -28 17 -71 18 -93 0 -11 5 -23 9 -26 4 -3 9 -21 10 -40 1 -19 5 -37 10 -40 4 -3 9 -68 12 -145 9 -232 12 -262 34 -306 26 -56 50 -278 29 -278 -5 0 -6 -5 -2 -11 6 -11 8 -21 18 -174 3 -44 8 -100 11 -125 3 -25 7 -67 10 -95 2 -27 4 -50 5 -50 1 0 3 -11 5 -25 8 -74 16 -123 20 -130 8 -14 16 -149 20 -360 2 -113 6 -221 8 -240 11 -84 18 -149 22 -210 11 -180 16 -236 22 -250 3 -8 7 -22 8 -30 1 -8 6 -35 10 -60 3 -25 8 -99 10 -165 2 -66 6 -131 9 -144 21 -95 35 -328 22 -349 -4 -7 -3 -12 2 -12 4 0 8 -15 7 -32 -2 -41 12 -205 19 -238 4 -14 9 -36 11 -50 3 -14 8 -92 10 -175 3 -82 8 -168 10 -190 3 -22 8 -65 11 -95 3 -30 14 -82 24 -115 24 -74 28 -103 45 -325 2 -36 7 -85 10 -110 8 -71 16 -160 19 -220 5 -85 23 -217 31 -231 13 -20 16 -91 5 -104 -7 -8 -9 -15 -5 -15 3 0 -6 -13 -22 -28 -24 -24 -132 -85 -147 -83 -3 0 -25 -7 -48 -15 -24 -9 -53 -17 -65 -20 -86 -16 -102 -20 -165 -42 -32 -11 -58 -18 -58 -16 0 3 -12 -2 -27 -10 -16 -9 -41 -21 -58 -28 -40 -15 -51 -18 -61 -17 -4 0 -10 -3 -13 -8 -12 -18 -101 -54 -113 -47 -7 4 -10 4 -6 -1 8 -9 -113 -74 -152 -81 -13 -3 -27 -9 -30 -13 -5 -7 -66 -37 -85 -42 -5 -1 -16 -9 -23 -16 -7 -7 -19 -13 -26 -13 -8 0 -19 -7 -26 -15 -7 -8 -16 -12 -21 -9 -5 3 -9 0 -9 -7 0 -7 -3 -9 -7 -6 -3 4 -15 0 -25 -10 -10 -9 -18 -12 -18 -7 0 5 -5 2 -10 -6 -5 -8 -14 -16 -20 -16 -5 -1 -14 -2 -18 -3 -8 -1 -25 -14 -69 -51 -7 -6 -13 -8 -13 -5 0 3 -20 -8 -44 -25 -25 -16 -49 -30 -55 -30 -6 0 -11 -4 -11 -9 0 -5 -15 -18 -32 -30 -18 -11 -42 -28 -53 -39 -11 -10 -28 -23 -37 -28 -9 -5 -53 -44 -97 -87 -44 -42 -85 -77 -91 -77 -6 0 -9 -4 -6 -8 3 -5 -4 -16 -15 -25 -10 -9 -19 -14 -19 -12 0 3 -9 -3 -20 -13 -40 -37 -130 -74 -165 -68 -54 10 -67 56 -70 233 -1 81 2 164 6 183 4 19 4 39 -1 45 -5 6 -7 22 -5 36 3 13 4 78 3 144 -3 155 -1 348 7 660 4 138 8 525 9 860 0 342 5 616 10 624 6 9 5 12 -1 8 -10 -6 -10 64 1 81 2 4 1 14 -4 22 -4 7 -4 24 1 37 6 17 6 22 -2 18 -13 -9 -8 27 6 37 7 5 6 8 -1 8 -9 0 -11 59 -4 95 1 6 1 12 0 15 -7 20 -7 40 1 40 6 0 7 6 3 12 -12 19 -12 48 0 48 7 0 7 3 1 8 -5 4 -10 16 -10 27 0 11 5 23 10 27 7 5 7 8 0 8 -6 0 -10 33 -11 78 0 42 -4 97 -8 122 -4 25 -8 54 -9 65 -1 11 -5 22 -8 25 -4 3 -9 21 -12 41 -2 20 -7 41 -10 46 -4 5 -7 27 -8 49 -2 61 -20 177 -30 195 -4 9 -10 27 -13 40 -2 13 -14 60 -26 104 -12 44 -24 94 -27 110 -3 17 -10 36 -15 43 -6 6 -8 12 -4 12 3 0 0 16 -8 35 -8 19 -13 35 -11 35 2 0 -5 29 -15 65 -10 36 -19 68 -19 70 -1 24 -16 84 -24 100 -6 11 -12 25 -12 30 -1 6 -6 23 -13 38 -7 16 -12 31 -12 33 0 14 -122 244 -151 286 -11 14 -19 30 -19 35 0 4 -16 34 -35 66 -19 31 -31 57 -27 57 4 0 2 4 -5 8 -6 4 -18 19 -25 32 -8 14 -29 50 -48 80 -19 30 -35 57 -34 60 0 3 -4 10 -8 15 -5 6 -17 21 -28 34 -11 13 -17 28 -13 34 3 5 2 7 -4 4 -5 -4 -16 6 -24 21 -7 15 -27 45 -44 67 -17 22 -43 58 -58 81 -15 22 -35 49 -45 60 -35 39 -102 131 -102 140 0 5 -9 16 -20 24 -11 8 -20 20 -20 26 0 7 -4 14 -8 16 -5 2 -26 30 -47 63 -40 61 -51 75 -72 100 -7 7 -13 17 -13 22 0 4 -14 24 -30 43 -16 19 -30 39 -30 43 0 4 -13 22 -30 40 -16 18 -30 38 -30 45 0 7 -4 10 -10 7 -5 -3 -10 -2 -10 4 0 17 -162 171 -181 171 -5 0 -12 7 -15 15 -4 8 -11 15 -17 15 -11 0 -14 2 -101 84 -33 31 -61 56 -62 56 -12 0 -142 146 -137 153 3 6 2 7 -4 4 -5 -4 -22 8 -36 26 -14 18 -38 46 -52 61 -14 15 -22 32 -19 38 4 6 2 8 -3 5 -6 -4 -23 10 -39 31 -15 20 -34 41 -41 45 -7 4 -13 13 -13 20 0 7 -9 18 -20 25 -12 7 -18 18 -14 24 4 6 3 8 -3 5 -6 -4 -24 9 -40 28 -17 19 -36 35 -42 35 -7 0 -11 8 -9 18 2 11 -3 16 -14 14 -10 -2 -18 -1 -18 2 0 2 8 12 18 22 20 20 22 36 7 46 -6 5 -3 8 7 8 11 0 15 5 12 15 -4 8 1 17 10 21 22 9 39 41 26 49 -6 4 -10 3 -9 -2 4 -22 -3 -33 -18 -33 -17 1 -17 1 0 11 9 6 15 14 12 19 -3 5 4 14 16 20 17 10 20 9 14 -2 -4 -7 4 0 19 16 14 16 23 34 19 40 -4 6 2 4 12 -4 10 -8 16 -10 12 -4 -10 16 18 25 33 11 10 -9 11 -9 5 2 -6 11 -2 13 19 9 14 -3 26 -2 26 1 0 3 470 6 1045 6 653 0 1045 -4 1045 -10z m6278 -246 c-10 -6 -18 -14 -18 -20 0 -5 10 -1 22 10 20 20 44 19 32 0 -3 -5 0 -8 8 -7 7 2 12 -3 10 -10 -1 -8 2 -11 8 -7 13 8 42 -20 32 -30 -4 -5 -2 -5 5 -2 6 4 20 -4 31 -18 11 -14 25 -25 31 -25 6 0 11 -3 11 -7 0 -5 21 -21 47 -38 26 -16 62 -43 80 -60 53 -49 145 -129 165 -143 10 -7 16 -18 13 -23 -4 -5 0 -9 8 -9 9 0 52 -35 96 -78 45 -43 84 -76 86 -73 3 2 5 -3 5 -12 0 -9 3 -17 8 -17 9 0 192 -176 192 -185 0 -10 237 -243 295 -290 27 -22 58 -51 69 -64 12 -13 35 -39 53 -58 17 -18 30 -33 28 -33 -3 0 13 -17 34 -38 21 -20 43 -47 50 -60 7 -12 16 -20 22 -17 5 4 9 3 9 -2 0 -10 42 -62 98 -120 23 -24 42 -47 42 -49 0 -3 11 -16 24 -29 37 -37 116 -142 116 -154 0 -6 4 -11 8 -11 5 0 18 -18 31 -40 12 -22 20 -40 17 -40 -3 0 6 -12 19 -26 14 -15 25 -31 25 -36 0 -11 82 -132 92 -136 5 -2 8 -8 8 -14 0 -5 11 -24 25 -42 14 -18 25 -36 25 -40 0 -4 5 -12 10 -19 21 -24 60 -88 60 -97 0 -5 9 -14 20 -20 11 -6 20 -17 20 -25 0 -8 3 -15 8 -15 4 0 16 -15 26 -33 44 -73 78 -134 95 -173 11 -23 24 -45 30 -49 6 -3 9 -11 6 -16 -4 -5 -1 -9 5 -9 6 0 8 -4 5 -10 -3 -5 -2 -10 2 -10 5 0 17 -17 28 -37 10 -21 28 -50 38 -65 10 -16 15 -28 10 -28 -4 0 -1 -6 8 -13 9 -7 17 -15 18 -19 0 -5 15 -37 31 -73 17 -36 30 -71 30 -78 0 -7 4 -17 9 -22 5 -6 16 -35 26 -65 9 -30 19 -62 22 -70 4 -8 7 -17 8 -20 6 -18 18 -48 26 -65 5 -11 10 -29 12 -40 2 -11 9 -30 15 -42 7 -13 10 -23 7 -23 -4 0 -3 -6 2 -12 4 -7 8 -15 8 -18 1 -9 26 -84 35 -105 38 -93 50 -126 50 -139 0 -9 5 -16 10 -16 6 0 10 -6 10 -14 0 -7 9 -34 20 -58 11 -25 22 -56 24 -69 3 -13 5 -24 5 -24 1 0 19 -51 40 -112 22 -62 37 -113 34 -113 -3 0 -1 -6 5 -13 7 -7 13 -29 14 -48 2 -19 6 -36 10 -39 4 -3 8 -17 10 -30 2 -14 6 -30 10 -35 3 -6 9 -28 13 -50 5 -22 12 -51 18 -65 5 -14 11 -39 12 -57 2 -17 5 -35 8 -40 3 -5 8 -29 12 -53 5 -38 17 -82 43 -150 8 -23 12 -37 12 -45 0 -3 6 -18 14 -34 8 -15 16 -39 18 -52 2 -13 10 -35 18 -49 8 -14 15 -33 17 -42 6 -36 8 -43 15 -48 4 -3 10 -21 13 -40 3 -19 8 -42 10 -50 2 -8 6 -26 9 -40 3 -14 14 -60 26 -102 39 -150 61 -233 65 -248 2 -8 12 -44 23 -80 11 -36 25 -87 32 -115 14 -58 28 -101 42 -132 6 -12 8 -29 5 -37 -4 -9 -2 -16 3 -16 6 0 9 -3 8 -7 0 -5 1 -15 4 -23 5 -13 12 -45 32 -150 3 -14 16 -65 30 -115 13 -49 26 -106 29 -125 3 -19 7 -42 11 -50 3 -8 7 -37 10 -65 3 -27 12 -86 21 -130 9 -44 19 -89 21 -100 11 -55 16 -83 18 -120 2 -22 6 -58 10 -80 12 -76 28 -221 30 -267 1 -16 3 -28 6 -28 3 0 7 -16 8 -35 2 -20 7 -47 12 -61 6 -14 12 -62 15 -107 5 -81 11 -130 20 -177 3 -14 8 -41 11 -60 2 -19 10 -69 16 -110 6 -41 15 -83 19 -92 9 -17 20 -75 23 -118 0 -16 -4 -25 -14 -25 -21 -1 -60 17 -60 27 0 5 -4 7 -9 3 -5 -3 -17 2 -25 11 -9 8 -16 12 -16 7 0 -4 -4 -3 -8 3 -12 17 -79 54 -85 47 -4 -3 -7 -2 -7 3 0 10 -56 34 -74 33 -5 0 -12 3 -15 8 -3 5 -35 20 -69 33 -35 13 -66 29 -69 36 -2 7 -11 10 -19 7 -8 -3 -14 0 -14 6 0 6 -6 11 -13 11 -18 0 -67 24 -67 33 0 4 -7 7 -15 7 -8 0 -15 4 -15 8 0 5 -18 15 -40 22 -22 7 -40 17 -40 21 0 5 -15 16 -32 24 -40 19 -64 33 -106 63 -17 13 -32 21 -32 17 0 -3 -10 3 -22 15 -12 11 -34 25 -49 32 -15 7 -25 16 -22 22 3 5 1 6 -5 2 -7 -4 -22 2 -34 13 -12 12 -27 21 -33 21 -6 0 -17 9 -25 20 -8 11 -20 20 -27 20 -7 0 -20 8 -30 18 -10 10 -51 42 -90 72 -40 29 -73 57 -73 63 0 6 -3 8 -6 5 -3 -3 -16 4 -28 16 -13 11 -38 32 -57 46 -19 14 -44 35 -57 48 -13 12 -25 22 -27 22 -4 0 -74 45 -90 58 -5 4 -25 15 -42 22 -18 8 -33 17 -33 20 0 3 -12 6 -27 7 -15 0 -29 6 -31 12 -2 6 -14 11 -27 11 -13 0 -27 5 -30 10 -3 6 -15 10 -25 10 -10 0 -20 3 -22 8 -4 8 -130 72 -144 72 -5 0 -20 9 -34 20 -14 11 -31 20 -38 20 -7 0 -31 9 -55 19 -69 31 -127 51 -127 45 0 -4 -6 -2 -12 3 -10 8 -68 31 -98 38 -3 1 -13 5 -22 8 -41 16 -54 20 -63 23 -5 1 -48 17 -95 34 -47 18 -100 38 -117 45 -18 6 -36 14 -39 18 -4 4 -16 7 -26 7 -10 0 -18 4 -18 8 0 5 -6 9 -12 9 -19 1 -192 84 -200 97 -4 6 -8 8 -8 4 0 -4 -35 10 -77 31 -43 22 -91 43 -108 47 -16 4 -35 11 -41 15 -6 5 -19 10 -30 12 -10 2 -36 11 -58 20 -21 9 -42 17 -47 17 -5 0 -9 5 -9 10 0 6 -7 10 -17 10 -9 0 -14 3 -10 6 3 4 0 18 -7 33 -8 14 -17 51 -20 81 -4 30 -12 79 -17 109 -6 29 -12 146 -13 260 -2 114 -6 212 -9 218 -4 7 -4 14 1 16 8 5 7 40 -3 112 -3 22 -7 70 -9 106 -2 37 -6 71 -10 77 -3 6 -2 14 4 17 7 5 8 11 1 19 -6 7 -6 17 -1 26 5 8 5 21 -1 32 -5 10 -6 18 -1 18 4 0 8 9 8 20 0 11 -3 20 -7 20 -10 0 -5 34 6 42 7 5 7 8 0 8 -6 0 -11 69 -13 183 -4 205 -6 241 -15 277 -8 29 -17 74 -22 110 -2 14 -7 86 -10 160 -7 174 -16 336 -20 380 -11 104 -14 143 -20 227 -3 51 -8 98 -10 105 -3 7 -7 27 -9 43 -20 143 -24 181 -23 225 1 27 0 50 -3 50 -3 0 -6 24 -7 53 -1 28 -4 79 -7 112 -5 64 -18 229 -19 257 -1 9 -5 14 -9 12 -4 -3 -8 5 -9 18 0 13 -3 32 -5 43 -10 42 -15 71 -18 111 -2 23 -5 46 -8 50 -5 11 -11 73 -12 136 -1 27 -3 48 -6 48 -6 0 -12 49 -14 112 -1 20 -4 34 -8 31 -5 -2 -8 13 -9 34 0 21 -2 45 -4 53 -2 8 -7 31 -10 50 -3 19 -8 51 -12 70 -3 19 -7 53 -9 75 -2 22 -6 67 -9 100 -12 122 -14 163 -17 287 -2 71 -5 128 -9 128 -3 0 -6 17 -8 38 -4 66 -6 77 -15 83 -8 6 -12 50 -16 188 -1 25 -1 51 0 56 1 6 2 14 0 20 -1 5 -3 68 -5 140 -2 71 -8 151 -13 178 -6 29 -6 50 0 53 5 4 5 10 -1 17 -5 7 -11 59 -13 117 -1 58 -7 108 -13 112 -6 5 -4 8 5 8 13 0 13 1 0 10 -13 8 -13 10 -1 10 11 0 10 4 -4 13 -14 11 -15 16 -5 22 9 6 11 4 5 -5 -6 -9 -4 -11 4 -6 7 5 10 14 7 22 -3 8 0 11 10 7 9 -3 14 1 14 12 0 9 4 14 8 11 11 -7 42 30 34 40 -4 4 2 4 12 0 15 -5 17 -4 7 8 -9 11 -8 15 5 20 9 3 21 3 27 -1 7 -4 6 1 -2 11 -12 15 -12 17 0 14 8 -2 13 2 12 7 -1 6 8 12 20 12 20 2 20 1 5 -8z m-11208 -261 c0 26 37 -7 45 -40 12 -49 14 -241 2 -255 -5 -7 -5 -13 -1 -13 5 0 8 -80 6 -177 -4 -290 -7 -351 -14 -359 -4 -4 -4 -12 -1 -18 7 -11 6 -179 -3 -396 -3 -69 -6 -153 -7 -187 -1 -35 -6 -63 -10 -63 -5 0 -5 -5 -2 -11 4 -5 6 -79 6 -162 -1 -84 -3 -1180 -5 -2437 -2 -1754 -5 -2290 -14 -2307 -7 -13 -20 -26 -30 -31 -9 -5 -444 -7 -967 -5 -1022 3 -1120 5 -1131 16 -12 11 -62 8 -66 -4 -5 -14 -211 -17 -333 -5 -141 13 -241 9 -262 -10 -6 -6 -27 -10 -45 -9 -18 2 -40 3 -49 4 -9 0 -22 15 -29 32 -14 34 -20 219 -7 219 5 0 6 4 2 9 -9 15 -11 871 -2 871 5 0 5 5 1 11 -11 19 -10 219 1 219 7 0 7 3 0 8 -5 4 -10 30 -10 57 0 28 5 53 10 57 7 5 7 8 0 8 -11 0 -12 436 -2 465 4 9 3 14 -1 11 -11 -7 -9 468 3 476 7 5 7 8 0 8 -11 0 -12 179 -1 206 3 8 2 13 -2 10 -4 -2 -6 69 -6 157 1 89 -2 178 -7 197 -4 19 -11 47 -14 63 -3 15 -7 38 -10 52 -3 16 -1 25 7 25 9 0 9 3 1 11 -7 7 -8 18 -3 28 30 60 33 72 46 155 3 22 9 45 12 51 4 5 7 18 8 28 1 9 3 19 4 22 4 7 6 16 15 60 4 22 11 45 16 51 5 6 10 19 12 30 9 45 20 74 29 74 5 0 7 4 4 9 -3 5 12 45 34 89 22 44 40 85 40 91 0 6 3 11 8 11 4 0 22 34 41 75 19 40 39 71 44 68 6 -4 7 -1 2 7 -4 7 -4 15 1 19 5 3 20 29 33 56 13 28 29 56 35 64 5 7 11 20 13 29 1 9 7 18 12 20 6 2 11 10 11 18 0 9 4 13 9 9 5 -3 12 3 15 12 3 10 28 42 56 71 27 29 50 57 50 62 0 4 4 10 8 12 4 2 27 32 50 68 23 36 45 70 50 75 4 6 23 30 42 55 18 25 44 56 57 70 12 14 38 45 58 70 19 25 39 50 43 55 5 6 17 24 28 40 10 16 27 38 37 47 9 10 17 23 17 29 0 5 5 7 10 4 6 -3 10 0 10 7 0 7 18 31 40 53 21 22 39 43 40 47 1 15 222 228 237 228 9 0 13 3 10 7 -7 6 54 53 69 53 4 0 17 11 30 26 13 14 24 22 24 19 0 -4 6 0 14 7 7 7 33 29 57 48 24 19 55 46 69 60 14 14 48 43 74 65 27 22 54 45 60 50 37 33 96 75 105 75 6 0 11 4 11 10 0 5 13 16 29 25 33 16 221 201 221 216 0 5 6 9 13 9 7 0 24 12 38 28 49 53 193 161 217 162 6 0 12 4 12 9 0 5 19 19 43 31 23 12 50 30 59 40 23 24 213 150 227 150 6 0 11 5 11 10 0 6 7 10 15 10 8 0 15 5 15 11 0 5 4 8 9 4 5 -3 13 0 17 6 5 9 62 39 87 45 4 1 10 3 15 4 4 1 10 2 15 1 4 0 7 4 7 10 0 6 7 8 16 5 8 -3 12 -2 9 4 -3 6 2 13 12 16 10 3 25 9 33 13 9 5 18 4 22 -3 5 -8 8 -7 8 2z m713 -6 c4 8 6 6 6 -5 1 -10 5 -16 10 -12 6 3 14 -3 20 -12 6 -10 11 -13 11 -6 0 8 15 4 43 -10 23 -12 44 -24 47 -27 3 -3 14 -7 25 -8 11 -2 22 -8 23 -13 2 -5 12 -9 22 -9 10 0 25 -6 32 -12 7 -7 20 -14 28 -16 8 -2 47 -15 85 -30 39 -14 72 -27 75 -28 17 -4 90 -34 115 -47 11 -6 32 -17 47 -24 15 -8 30 -18 33 -24 4 -5 27 -19 53 -30 26 -12 55 -28 65 -37 9 -8 17 -12 17 -8 0 4 12 0 28 -8 34 -18 65 -30 75 -28 4 1 7 -5 7 -13 0 -8 3 -14 8 -13 16 3 49 -17 84 -54 21 -21 40 -38 44 -38 7 0 144 -136 144 -143 0 -3 19 -25 43 -49 23 -24 58 -63 77 -87 59 -73 140 -151 260 -251 23 -19 63 -54 89 -77 25 -23 51 -43 58 -43 6 0 15 -9 18 -20 3 -11 10 -20 15 -20 10 0 37 -23 120 -101 33 -31 60 -54 60 -52 0 2 25 -20 56 -51 31 -30 53 -60 49 -66 -3 -6 -1 -9 7 -8 7 2 12 -3 10 -10 -1 -8 1 -11 6 -8 10 6 43 -30 35 -38 -4 -3 -1 -6 5 -6 7 0 12 -4 12 -10 0 -5 21 -31 48 -58 26 -26 72 -77 102 -112 30 -36 58 -67 61 -70 11 -10 113 -225 111 -234 -2 -5 1 -12 5 -15 14 -10 73 -99 73 -109 0 -5 7 -12 15 -16 8 -3 15 -12 15 -21 0 -8 3 -15 8 -15 4 0 16 -17 27 -37 10 -21 25 -45 32 -54 8 -9 15 -25 17 -35 3 -11 12 -37 22 -59 10 -22 19 -43 20 -47 1 -5 2 -9 4 -10 1 -2 3 -10 5 -18 2 -8 8 -28 14 -45 6 -16 19 -57 30 -90 19 -57 66 -193 78 -225 3 -8 8 -24 10 -35 2 -11 6 -27 10 -35 7 -18 10 -27 16 -60 3 -14 6 -26 8 -27 16 -21 31 -293 18 -315 -4 -7 -5 -17 -1 -22 7 -13 6 -215 -2 -223 -3 -3 -3 -10 0 -15 5 -8 8 -200 4 -223 -2 -6 -2 -14 -1 -20 2 -11 0 -1482 -3 -2175 -1 -425 -3 -437 -46 -457 -8 -4 -96 -8 -195 -9 -99 -1 -283 -5 -410 -8 -385 -10 -651 -9 -673 3 -24 13 -162 15 -162 2 0 -4 -18 -8 -40 -7 -22 0 -40 4 -40 8 0 12 -28 9 -32 -3 -7 -20 -1261 -10 -1281 10 -6 6 -12 26 -14 43 -7 63 -8 170 -2 174 3 2 3 24 -1 48 -4 25 -4 50 -1 55 4 5 5 31 4 58 -6 99 -5 141 1 151 3 6 2 14 -4 17 -7 5 -8 11 -1 19 5 6 6 18 2 25 -5 7 -5 27 -2 45 6 28 7 47 2 61 -5 14 -2 135 3 143 4 6 2 13 -4 17 -6 4 -7 12 -1 24 5 9 6 23 1 31 -4 7 -6 18 -4 24 9 24 10 87 2 92 -5 3 -4 12 2 19 6 7 7 16 2 19 -9 5 -7 70 3 86 3 5 1 11 -4 15 -7 4 -7 15 -1 30 6 16 6 25 0 25 -6 0 -6 9 0 25 5 14 6 25 2 25 -6 0 -6 27 1 123 1 20 0 37 -4 37 -6 0 -5 27 1 55 1 6 1 13 0 18 -5 20 -4 157 2 157 5 0 -4 49 -12 63 -1 1 3 15 9 30 7 18 7 26 1 22 -7 -4 -7 3 0 19 5 14 6 26 2 26 -9 0 -7 53 3 69 3 6 2 11 -3 11 -10 0 -7 54 3 71 4 5 2 9 -2 9 -8 0 -10 86 -3 115 1 6 1 12 0 15 -7 18 -5 50 4 50 6 0 6 4 -1 11 -8 8 -8 20 -2 36 5 13 6 22 1 20 -6 -5 -8 82 -2 108 1 6 1 15 0 20 -6 28 -4 75 3 75 4 0 3 8 -2 19 -6 10 -8 21 -5 24 11 10 10 77 -1 77 -5 0 -3 5 5 10 11 7 11 10 2 10 -9 0 -10 5 -3 19 6 10 8 21 4 24 -9 10 -10 51 -1 70 5 10 5 17 0 17 -10 0 -7 54 3 71 4 5 3 9 -2 9 -12 0 -10 144 2 152 6 5 5 8 -3 8 -10 0 -10 5 -2 20 6 11 7 20 2 20 -10 0 -6 55 4 72 4 7 2 8 -4 4 -9 -5 -9 0 -2 18 5 14 5 28 1 30 -9 6 -5 61 4 77 4 5 2 9 -3 9 -10 0 -7 54 3 71 4 5 2 9 -2 9 -10 0 -10 66 -1 76 4 3 3 16 -1 28 -8 23 -7 63 2 72 3 3 2 17 -3 30 -6 14 -6 24 -1 24 8 0 8 20 1 40 -6 15 -4 47 3 64 6 12 6 16 -2 12 -8 -5 -8 0 -2 17 5 14 6 28 1 33 -4 5 -5 30 -1 56 4 25 4 54 -1 62 -6 10 -5 16 2 16 6 0 8 5 4 12 -7 11 -10 53 -4 61 5 7 4 77 -1 77 -8 0 -3 45 7 61 4 8 3 9 -4 5 -9 -5 -9 -1 -3 17 6 16 6 28 -2 36 -8 8 -8 11 1 11 9 0 10 5 3 17 -6 11 -6 24 0 35 5 9 5 19 1 22 -5 3 -6 25 -2 50 4 24 3 52 -2 60 -5 10 -5 24 2 36 6 11 8 26 4 32 -10 16 -11 56 -3 70 4 6 3 22 -2 35 -5 13 -5 23 0 23 8 0 8 20 1 40 -3 6 -1 42 2 93 2 20 0 37 -3 37 -7 0 -2 57 6 71 4 5 3 9 -2 9 -7 0 -9 144 -3 175 1 6 1 12 0 15 -5 13 -6 70 0 70 5 0 5 47 0 60 -6 14 -5 37 3 53 4 10 4 17 -2 17 -9 0 -6 45 5 62 3 4 2 8 -3 8 -4 0 -8 29 -8 65 0 36 3 65 8 65 4 0 5 5 1 11 -10 17 -12 79 -2 79 5 0 6 6 1 13 -11 18 -12 36 -3 42 5 3 6 13 3 21 -10 27 -10 79 1 87 8 6 8 10 0 13 -10 4 -10 66 1 84 3 6 3 10 -2 10 -10 0 -9 132 0 147 4 7 2 15 -4 19 -8 4 -7 9 2 15 8 5 10 9 4 9 -8 0 -12 64 -5 88 1 4 1 12 0 17 -7 28 -4 365 4 365 5 0 4 6 -2 13 -9 10 -7 19 5 37 9 13 11 20 4 15 -10 -6 -11 -3 -2 12 6 11 8 22 6 25 -3 3 2 5 10 5 8 0 11 -5 8 -10 -4 -6 -1 -7 6 -3 7 5 10 15 6 24 -5 13 -3 13 14 -2 15 -13 20 -14 24 -4z m8029 -6597 c5 -6 8 -6 8 2 0 12 17 12 38 0 6 -5 12 -4 12 0 0 10 143 9 159 -1 6 -4 11 -3 11 1 0 12 113 10 122 -2 5 -6 8 -5 8 2 0 13 26 13 48 0 6 -5 12 -4 12 0 0 5 35 7 78 6 98 -5 92 -5 126 0 16 3 42 1 57 -3 15 -5 30 -5 34 -2 9 9 75 10 75 1 0 -4 15 -3 34 1 19 4 40 4 47 -1 8 -5 31 -9 52 -9 20 0 37 -3 37 -7 0 -5 12 -8 28 -8 15 -1 47 -4 72 -8 41 -7 67 -10 183 -21 21 -2 53 -7 72 -10 18 -4 59 -9 91 -12 32 -2 91 -12 132 -20 41 -9 87 -17 101 -19 14 -1 26 -4 26 -5 0 -1 11 -3 25 -5 14 -1 43 -5 65 -9 38 -7 86 -15 130 -21 11 -1 20 -3 20 -5 0 -1 15 -3 34 -5 18 -2 54 -8 80 -14 25 -6 60 -13 76 -15 17 -2 30 -5 30 -6 0 -2 37 -10 70 -14 17 -3 30 -5 30 -6 0 -1 11 -3 25 -5 14 -2 36 -6 50 -8 30 -6 85 -15 122 -21 14 -2 36 -9 47 -16 12 -6 21 -9 21 -6 0 3 15 0 33 -5 17 -6 37 -11 44 -13 7 -1 16 -5 19 -9 4 -4 18 -7 31 -7 12 0 23 -4 23 -10 0 -5 7 -10 15 -10 8 0 15 -5 15 -11 0 -5 4 -8 9 -5 5 4 38 -10 73 -29 34 -19 79 -43 98 -53 19 -10 52 -28 73 -40 21 -12 44 -22 53 -22 8 0 12 -4 9 -10 -3 -5 3 -10 14 -10 12 0 21 -5 21 -11 0 -5 5 -7 10 -4 6 3 10 1 10 -5 0 -6 5 -8 10 -5 6 3 10 2 10 -3 0 -5 10 -12 22 -15 18 -5 19 -8 8 -21 -10 -13 -10 -16 4 -16 10 0 14 -5 11 -10 -4 -6 -10 -8 -15 -5 -11 7 -7 -22 5 -32 4 -4 5 -2 0 6 -5 9 -4 12 3 8 5 -4 9 -15 7 -25 -1 -9 2 -26 8 -37 9 -18 9 -19 -8 -5 -17 14 -18 14 -6 -9 12 -22 12 -24 -8 -18 -19 5 -20 3 -9 -11 8 -10 9 -13 1 -9 -6 4 -15 2 -18 -4 -4 -5 -13 -8 -21 -5 -8 3 -14 0 -15 -7 0 -9 -2 -9 -6 1 -2 6 -10 9 -16 5 -7 -4 -16 -8 -22 -10 -5 -1 -21 -4 -35 -7 -13 -3 -42 -8 -65 -11 -22 -4 -53 -8 -70 -11 -16 -3 -50 -7 -75 -10 -25 -3 -47 -9 -48 -14 -2 -6 -7 -8 -11 -6 -6 4 -31 0 -116 -20 -44 -11 -52 -12 -105 -20 -59 -9 -67 -10 -75 -14 -6 -3 -4 -2 -60 -15 -47 -10 -54 -12 -57 -15 -3 -2 -19 -5 -61 -13 -15 -3 -35 -8 -45 -11 -24 -7 -98 -22 -147 -29 -11 -1 -26 -6 -33 -11 -7 -4 -16 -5 -19 -2 -3 3 -12 1 -20 -5 -7 -6 -13 -8 -13 -4 0 4 -6 2 -13 -4 -8 -6 -30 -12 -50 -13 -20 -2 -37 -5 -37 -8 0 -8 -62 -30 -83 -30 -9 0 -17 -5 -17 -11 0 -5 -4 -8 -9 -5 -9 6 -75 -14 -135 -40 -16 -6 -36 -11 -45 -9 -9 1 -18 -1 -21 -4 -3 -4 -30 -14 -60 -23 -30 -9 -82 -26 -114 -38 -33 -12 -68 -22 -78 -23 -10 -1 -18 -4 -18 -8 0 -4 -18 -10 -40 -14 -22 -4 -42 -11 -46 -16 -3 -5 -10 -7 -15 -4 -5 4 -9 2 -9 -3 0 -5 -6 -9 -12 -10 -7 0 -38 -10 -68 -21 -31 -11 -69 -22 -85 -25 -15 -3 -32 -11 -37 -18 -4 -7 -8 -10 -8 -6 0 4 -18 1 -40 -7 -22 -8 -40 -12 -40 -8 0 3 -6 1 -12 -4 -11 -9 -55 -23 -73 -24 -3 0 -23 -6 -45 -14 -22 -8 -44 -15 -48 -16 -10 -2 -34 -10 -52 -16 -8 -4 -19 -7 -25 -8 -5 -2 -30 -8 -55 -15 -50 -14 -70 -18 -119 -26 -44 -7 -60 -11 -98 -23 -18 -5 -33 -7 -33 -4 0 3 -6 0 -13 -6 -8 -6 -16 -9 -18 -6 -3 2 -22 0 -44 -6 -22 -5 -65 -12 -95 -15 -74 -9 -74 -9 -85 -15 -5 -3 -30 -7 -55 -8 -25 -2 -47 -7 -48 -12 -2 -5 -7 -7 -11 -5 -4 3 -34 -2 -67 -11 -58 -15 -72 -18 -116 -28 -82 -18 -165 -38 -178 -43 -21 -8 -22 -8 -55 -16 -16 -4 -47 -14 -67 -22 -21 -8 -38 -12 -38 -9 0 3 -13 -1 -29 -9 -16 -9 -31 -13 -34 -10 -3 3 -23 -4 -46 -14 -26 -13 -43 -16 -47 -10 -4 6 -9 5 -15 -3 -4 -7 -22 -15 -38 -17 -39 -4 -46 13 -55 128 -4 47 -8 94 -10 105 -1 11 2 26 7 33 5 7 6 12 0 12 -4 0 -9 33 -10 73 -1 40 -4 89 -7 108 -9 69 -17 114 -22 129 -3 8 -7 65 -10 125 -2 61 -7 130 -10 155 -3 25 -7 70 -10 100 -2 30 -6 80 -9 110 -3 30 -7 80 -10 110 -4 55 -19 155 -29 198 -4 12 -8 30 -10 41 -5 21 -9 111 -6 126 1 6 3 16 4 24 3 29 81 52 231 66 33 3 67 8 75 10 8 3 35 7 60 9 25 3 56 8 70 11 14 3 41 7 60 10 51 7 135 22 180 31 36 8 89 15 139 19 29 2 55 6 57 8 8 8 120 1 126 -8z m-1872 -311 c0 21 39 -29 46 -58 3 -17 9 -35 12 -41 4 -5 8 -21 10 -35 1 -14 7 -36 12 -50 6 -14 12 -70 15 -125 2 -55 7 -111 10 -125 3 -14 7 -47 10 -75 2 -27 4 -50 5 -50 1 0 3 -11 6 -25 2 -14 7 -38 10 -55 3 -16 8 -43 11 -60 2 -16 7 -37 10 -45 10 -25 14 -44 17 -81 2 -20 6 -41 10 -47 4 -7 9 -51 11 -99 2 -49 6 -99 9 -113 4 -14 8 -38 11 -55 3 -16 9 -47 14 -67 5 -20 6 -39 3 -42 -3 -4 -1 -6 5 -6 11 0 11 2 16 -120 4 -97 -6 -165 -23 -155 -6 4 -10 0 -10 -7 0 -18 -48 -38 -98 -41 -23 -1 -42 -4 -42 -7 0 -6 -30 -9 -120 -15 -25 -2 -74 -7 -110 -11 -91 -12 -330 -10 -368 4 -24 8 -31 8 -26 0 4 -6 3 -8 -3 -5 -5 3 -27 7 -49 8 -55 2 -145 29 -137 42 3 6 1 7 -5 3 -12 -7 -192 82 -192 96 0 4 -7 8 -15 8 -8 0 -15 5 -15 10 0 6 -9 10 -20 10 -11 0 -25 9 -32 20 -7 11 -18 20 -25 20 -7 0 -13 5 -13 10 0 6 -5 10 -11 10 -6 0 -34 23 -62 50 -28 28 -55 50 -59 50 -5 0 -8 6 -8 14 0 8 -3 16 -7 18 -15 6 -63 77 -63 91 0 8 -6 20 -14 26 -7 6 -13 29 -13 51 0 22 -2 43 -6 46 -4 4 -4 30 -1 58 10 97 13 121 14 121 1 0 3 12 4 27 2 15 9 35 17 45 9 10 9 14 2 9 -9 -5 -11 -2 -7 8 3 9 10 16 15 16 4 0 6 7 3 15 -4 8 -1 15 5 15 6 0 10 3 9 8 -4 13 35 84 49 89 7 3 13 11 13 19 0 8 5 14 12 14 6 0 9 3 6 6 -10 9 103 115 115 107 5 -3 7 -2 4 4 -4 6 5 21 18 33 14 13 25 20 25 15 0 -4 8 2 19 13 10 12 23 22 30 22 6 0 11 4 11 8 0 4 14 16 30 25 17 10 30 16 30 13 0 -3 9 3 20 14 12 12 25 18 30 15 6 -4 10 -2 10 4 0 8 26 22 50 26 3 0 28 11 55 24 28 13 53 23 57 23 4 -1 37 12 73 28 36 17 70 30 75 30 6 0 18 4 28 9 25 14 56 24 65 23 4 -1 7 3 7 9 0 5 4 8 9 4 5 -3 12 -1 16 5 3 5 13 10 20 10 12 0 108 42 210 91 11 5 30 11 43 12 12 0 22 6 22 11 0 5 3 7 6 4 3 -3 17 -3 32 1 16 5 30 4 34 -3 4 -6 8 -7 8 -2z m-4780 -214 c613 0 1134 1 1158 3 23 1 42 -2 43 -8 0 -7 2 -7 5 0 4 11 92 11 179 0 43 -5 55 -10 51 -21 -3 -8 -2 -14 2 -14 8 0 7 -352 -1 -374 -4 -9 -3 -17 1 -20 4 -2 5 -57 2 -121 -3 -64 -4 -118 -2 -120 6 -5 -6 -4387 -12 -4489 -3 -37 -7 -74 -10 -82 -3 -8 -2 -14 2 -14 8 0 8 -9 11 -215 2 -164 -6 -482 -12 -492 -3 -5 -7 -61 -8 -124 0 -63 -4 -118 -7 -124 -4 -5 -7 -21 -8 -35 -1 -14 -3 -26 -4 -27 -1 -2 -3 -7 -4 -13 0 -5 -5 -10 -10 -9 -5 0 -12 -5 -17 -13 -7 -11 -233 -13 -1306 -11 -1503 3 -1384 1 -1402 16 -12 9 -13 9 -7 -1 5 -9 1 -11 -16 -8 -13 3 -23 5 -23 6 0 1 -8 3 -19 5 -40 8 -53 46 -43 133 2 17 0 37 -4 43 -3 6 -3 26 1 45 5 20 4 37 -2 40 -5 3 -5 11 2 19 8 9 8 15 0 20 -7 4 -7 12 0 26 6 10 7 19 2 19 -8 0 -7 93 2 117 3 7 1 15 -4 18 -6 3 -5 16 0 31 6 14 7 23 2 21 -9 -6 -9 150 0 159 4 3 4 13 0 22 -8 22 -7 65 2 80 4 7 3 12 -1 12 -10 0 -9 143 1 159 4 6 2 11 -4 11 -8 0 -8 6 0 20 8 15 8 20 -1 20 -8 0 -8 4 1 15 7 9 8 15 2 15 -9 0 -8 69 2 96 2 6 0 17 -4 24 -5 8 -4 22 1 32 5 10 6 18 1 18 -9 0 -7 64 3 80 3 6 2 10 -2 10 -11 0 -10 61 1 78 4 7 3 19 -4 27 -7 9 -8 15 0 20 7 4 7 12 0 26 -7 12 -7 26 -2 37 5 9 6 26 2 37 -4 11 -4 32 1 47 4 14 5 29 2 32 -9 8 -10 87 -1 92 4 3 3 16 -2 30 -13 32 -12 37 1 28 8 -4 8 -1 2 12 -10 23 -10 45 0 62 5 6 4 12 -2 12 -7 0 -7 8 -1 25 5 14 6 25 1 25 -9 0 -5 55 5 72 4 6 2 8 -4 4 -7 -4 -8 3 -2 24 5 16 5 30 1 30 -9 0 -5 55 4 71 4 5 3 9 -2 9 -4 0 -8 22 -8 50 0 27 4 50 8 50 5 0 5 6 0 13 -11 17 -10 87 1 87 6 0 5 5 -1 11 -8 8 -8 20 -2 36 6 16 5 22 -1 18 -6 -4 -7 2 -1 18 6 16 6 28 -2 36 -8 8 -8 11 1 11 9 0 10 5 2 19 -7 14 -7 22 0 26 6 4 7 12 3 18 -10 16 -10 38 0 60 4 9 4 17 -1 17 -8 0 -7 103 2 126 3 7 1 16 -4 19 -5 3 -6 15 -1 28 5 12 5 32 0 45 -5 12 -5 22 0 22 8 0 8 28 1 38 -6 7 -3 49 4 60 4 7 2 12 -4 12 -7 0 -8 6 0 19 5 11 7 22 2 25 -9 6 -8 48 2 64 4 7 3 12 -3 12 -7 0 -7 8 -1 24 5 13 6 27 3 30 -9 8 -11 66 -3 66 5 0 5 47 0 60 -6 15 -4 36 4 48 5 7 5 12 -1 12 -9 0 -8 103 1 119 4 5 2 12 -2 15 -10 6 -8 48 4 67 4 8 3 9 -4 5 -9 -5 -9 0 -2 18 5 14 6 26 2 26 -8 0 -6 124 2 146 3 8 0 14 -6 14 -7 0 -6 5 2 15 7 8 8 15 3 15 -10 0 -8 64 3 82 4 7 3 8 -4 4 -9 -5 -9 0 -2 18 5 14 6 26 2 26 -6 0 -8 156 -2 185 1 6 1 12 0 15 -5 13 -6 70 0 70 8 0 5 43 -4 58 -4 7 -2 12 4 12 6 0 8 5 5 11 -11 16 -12 69 -3 69 5 0 5 8 -1 17 -6 11 -6 24 0 35 5 10 6 18 2 18 -9 0 -8 151 0 175 4 8 2 17 -2 19 -10 6 -7 49 5 67 4 8 3 9 -4 5 -9 -5 -9 -1 -3 17 6 16 6 28 -2 36 -8 8 -8 11 1 11 9 0 10 5 3 18 -7 13 -6 23 1 30 7 7 8 12 2 12 -11 0 -10 52 1 69 3 6 2 11 -2 11 -5 0 -8 17 -7 38 1 20 3 53 4 72 1 19 -1 47 -3 63 -2 15 -1 27 4 27 4 0 4 12 0 28 -5 15 -5 37 0 49 5 13 4 25 -1 28 -6 3 -6 15 0 30 6 16 6 25 -1 25 -6 0 -6 7 1 19 7 14 7 22 0 26 -6 4 -8 16 -4 28 7 21 7 113 0 170 -2 15 0 27 4 27 4 0 6 10 4 23 -1 12 -3 22 -4 22 -1 0 -3 19 -3 43 -1 23 2 42 6 42 5 0 5 4 2 10 -9 14 -10 174 -1 188 4 7 3 12 -2 12 -10 0 -10 86 1 96 3 4 3 14 -1 23 -9 20 -9 42 1 59 5 6 4 12 -1 12 -7 0 -8 33 -2 50 1 3 2 9 0 15 -5 29 -6 85 -1 85 3 0 5 32 4 71 -1 52 3 76 15 90 8 10 19 16 24 13 4 -3 8 -1 8 4 0 6 61 8 148 6 81 -2 649 -4 1262 -4z m-2080 -27 c7 -6 11 -6154 5 -6218 -7 -64 -13 -73 -54 -80 -19 -3 -38 -8 -43 -11 -4 -3 -8 0 -8 7 0 9 -3 10 -11 2 -6 -6 -25 -7 -47 -4 -31 6 -1132 6 -1247 1 -22 -1 -43 -1 -47 0 -16 3 -109 2 -112 -1 -3 -2 -60 -2 -128 1 -67 3 -151 3 -186 0 -35 -3 -71 -2 -80 1 -9 3 -25 4 -34 0 -9 -3 -71 -4 -138 -1 -67 3 -127 3 -135 0 -8 -3 -66 -3 -130 0 -64 3 -119 3 -121 1 -7 -7 -238 -7 -267 1 -16 4 -25 3 -22 -3 7 -11 -38 -12 -49 -1 -7 7 -11 8 -37 11 -5 0 -8 5 -5 10 4 5 2 11 -4 13 -23 8 -29 128 -27 615 1 282 0 513 -3 513 -10 0 -5 325 5 332 7 5 7 8 0 8 -11 0 -11 453 0 470 3 6 3 10 -2 10 -4 0 -6 247 -3 550 3 303 3 550 0 550 -5 0 -3 408 3 453 2 15 1 27 -2 27 -3 0 -5 240 -4 533 1 292 2 673 3 846 1 172 0 315 -2 316 -2 2 -1 53 2 114 3 61 3 111 0 111 -9 0 -5 305 4 319 6 9 5 12 -1 8 -12 -7 -9 245 3 264 4 8 3 9 -4 5 -8 -5 -11 10 -9 51 2 32 0 66 -5 75 -4 9 -4 19 0 22 5 3 8 19 7 35 -1 17 2 28 6 25 4 -2 11 2 16 9 4 8 14 16 21 18 19 6 2886 -1 2892 -8z m14172 -967 c10 9 73 11 79 2 3 -5 17 -4 32 1 14 6 28 7 31 3 2 -4 25 -7 50 -5 25 1 46 -2 46 -7 0 -5 7 -7 16 -3 28 10 93 -32 109 -72 7 -17 41 -129 48 -160 1 -5 5 -14 9 -20 12 -20 39 -128 43 -169 2 -22 6 -52 9 -66 4 -14 8 -40 11 -59 11 -81 17 -116 22 -124 2 -4 6 -20 9 -35 5 -32 12 -66 14 -69 2 -2 4 -7 5 -13 1 -5 3 -11 5 -12 1 -2 3 -23 5 -48 3 -49 15 -178 22 -225 2 -16 6 -55 8 -85 11 -119 25 -209 38 -240 11 -28 17 -46 22 -75 2 -11 6 -33 10 -50 3 -16 8 -66 11 -110 3 -44 9 -82 12 -85 8 -6 31 -69 37 -102 5 -25 16 -92 21 -123 1 -11 3 -20 4 -20 1 0 3 -25 5 -55 8 -125 35 -325 45 -325 3 0 7 -33 15 -125 10 -113 13 -135 15 -135 1 0 3 -16 6 -35 10 -83 14 -108 23 -160 6 -30 12 -64 14 -75 3 -11 8 -38 12 -60 6 -34 7 -1244 1 -2225 -2 -294 -9 -362 -39 -373 -7 -2 -28 -3 -47 -1 -47 4 -1754 18 -1955 15 -88 -1 -317 -4 -510 -7 -192 -3 -354 -6 -360 -6 -5 0 -23 4 -40 7 -16 4 -36 8 -42 8 -7 0 -13 4 -13 9 0 5 -4 7 -9 3 -6 -3 -15 4 -21 15 -6 11 -7 20 -3 20 4 0 3 4 -4 8 -17 11 -28 136 -11 126 10 -6 10 -5 2 7 -6 8 -12 43 -13 79 -1 36 -3 85 -5 110 -13 141 -19 268 -20 367 -1 62 -3 113 -6 113 -3 0 -6 24 -6 53 0 57 -11 188 -19 227 -3 14 -7 52 -10 85 -3 33 -7 70 -9 82 -3 13 0 25 5 28 5 4 6 12 2 18 -4 7 -8 59 -9 117 -2 98 -8 193 -20 315 -2 28 -7 79 -9 115 -3 36 -7 82 -8 103 -2 20 0 37 5 37 5 0 7 4 4 8 -11 18 -14 62 -5 62 6 0 7 6 3 12 -11 18 -12 48 -2 48 5 0 6 5 3 11 -12 18 -13 59 -1 59 7 0 7 3 1 8 -9 6 -11 22 -5 47 1 6 1 15 0 20 -3 13 -8 112 -14 260 -2 66 -7 143 -10 170 -10 80 -16 128 -19 150 -2 11 1 26 6 33 5 6 6 12 1 12 -5 0 -10 60 -11 133 -2 72 -5 152 -8 177 -4 25 -8 77 -11 115 -2 39 -7 108 -10 155 -9 149 -9 160 1 160 7 0 7 3 0 8 -5 4 -11 18 -12 32 -1 14 -9 63 -18 110 -9 47 -18 135 -20 195 -3 61 -7 171 -10 245 -3 74 -7 153 -10 175 -4 22 -7 79 -8 127 -1 49 -4 88 -7 88 -3 0 -5 13 -5 29 0 16 4 27 9 24 5 -4 6 -1 2 5 -12 20 -14 92 -2 92 7 0 7 3 1 8 -15 11 -17 72 -3 90 9 11 9 14 1 9 -8 -5 -12 4 -11 33 0 23 5 40 12 40 6 0 5 4 -3 9 -7 5 -10 14 -7 20 4 6 2 11 -5 11 -9 0 -9 3 0 14 9 11 9 15 -1 19 -10 4 -10 8 2 16 8 6 11 11 5 11 -13 0 -13 150 -1 169 7 10 6 12 -4 6 -9 -6 -10 -2 -5 15 4 12 8 29 9 36 3 18 41 46 50 37 3 -3 6 -2 6 4 0 6 18 9 40 8 22 -1 40 1 40 6 0 5 13 7 30 5 16 -2 31 2 33 8 3 8 8 7 19 -2 10 -8 19 -9 22 -4 3 6 20 12 38 15 80 13 99 16 108 22 6 3 10 0 10 -7 0 -10 2 -10 9 1 5 8 16 11 25 8 9 -4 16 -2 16 4 0 6 5 7 10 4 6 -4 34 -2 63 4 129 25 176 29 196 16 10 -5 12 -4 7 3 -6 10 19 11 44 2 3 -2 8 -2 11 -2 3 1 37 4 75 7 38 4 83 9 99 11 117 18 199 22 212 12 7 -5 14 -5 17 0 3 6 20 7 41 2 19 -4 35 -4 35 0 0 5 14 5 30 0 17 -5 30 -5 30 -2 0 4 18 7 40 6 23 0 43 3 46 8 3 4 13 4 23 -2 12 -6 22 -5 31 3 10 9 11 9 5 -2 -6 -10 -4 -12 6 -5 21 14 249 14 249 0 0 -8 2 -8 8 1 8 13 122 20 142 8 8 -5 11 -4 7 2 -5 7 9 10 37 9 25 -1 42 2 40 6 -3 4 25 8 63 8 307 2 433 6 433 14 0 5 6 3 13 -3 8 -6 16 -8 19 -5z m-3179 -392 c4 -7 15 -20 24 -29 9 -9 16 -35 17 -60 1 -25 5 -48 9 -51 4 -4 4 -11 0 -17 -10 -17 -5 -297 10 -579 1 -16 4 -28 7 -28 3 0 6 -21 7 -47 4 -157 12 -310 16 -323 3 -8 8 -39 12 -69 3 -29 7 -57 9 -60 9 -15 16 -128 21 -346 4 -198 9 -290 19 -380 1 -11 -2 -26 -7 -32 -6 -8 -6 -13 0 -13 6 0 10 -21 11 -47 0 -100 12 -327 17 -331 3 -3 0 -11 -6 -18 -7 -9 -7 -19 1 -33 8 -16 8 -21 -2 -21 -8 0 -9 -3 -3 -8 12 -8 13 -81 2 -99 -5 -7 -4 -13 2 -13 6 0 6 -11 1 -30 -5 -19 -5 -28 1 -25 5 4 8 -11 6 -35 -2 -23 -1 -43 3 -45 3 -2 6 -16 5 -32 0 -15 4 -31 9 -34 5 -4 9 -39 10 -78 1 -39 3 -71 6 -71 3 0 5 -80 6 -178 1 -157 5 -234 19 -377 3 -22 7 -119 10 -215 6 -201 13 -325 20 -359 6 -31 7 -129 2 -211 -3 -36 -2 -69 1 -75 4 -5 7 -19 8 -30 2 -11 6 -43 11 -70 5 -28 10 -145 12 -260 1 -116 4 -229 5 -252 1 -24 -2 -43 -6 -43 -5 0 -6 -6 -1 -12 9 -16 6 -46 -9 -75 -12 -25 -64 -40 -128 -35 -25 2 -360 5 -745 8 -385 2 -730 8 -767 12 -38 5 -68 5 -68 2 0 -4 -26 -5 -57 -4 -79 4 -337 7 -453 5 -70 -1 -619 5 -808 9 -26 0 -52 117 -29 132 8 5 8 8 1 8 -7 0 -12 37 -13 108 -1 59 -4 130 -6 157 -10 134 -16 258 -19 446 -1 113 -6 211 -10 218 -4 6 -2 11 4 11 8 0 8 6 0 20 -6 11 -7 20 -2 20 10 0 8 42 -3 59 -3 6 0 11 7 11 10 0 10 2 0 9 -19 12 -19 15 -2 36 8 11 10 16 4 12 -10 -6 -16 39 -18 145 -1 20 -4 34 -8 31 -5 -2 -8 4 -9 14 -1 10 -3 34 -5 53 -10 105 -10 130 -2 130 5 0 6 5 3 11 -13 20 -14 89 -2 89 8 0 8 3 2 8 -15 11 -18 75 -4 66 8 -5 9 -3 3 7 -4 8 -10 57 -11 109 -2 52 -8 110 -12 128 -7 23 -6 30 1 25 8 -4 9 0 4 13 -15 37 -17 61 -20 272 -2 117 -6 215 -9 219 -4 3 -3 13 2 22 5 9 5 25 1 35 -3 11 -4 37 0 57 4 21 4 42 -1 46 -4 4 -10 42 -14 83 -8 101 -13 155 -19 215 -3 28 -8 88 -12 135 -3 47 -8 88 -10 92 -6 10 -14 131 -19 290 -2 76 -6 142 -9 147 -4 5 -2 12 4 16 6 4 7 12 2 22 -5 8 -6 33 -2 54 4 21 4 39 1 39 -4 0 -6 11 -6 25 2 35 -17 164 -32 220 -7 27 -8 51 -4 92 1 16 95 59 146 68 50 9 122 18 143 19 12 1 22 3 22 6 0 6 40 12 88 14 12 1 22 4 22 8 0 3 8 5 18 3 9 -1 22 1 27 5 6 5 13 8 18 8 33 1 257 70 301 94 10 5 28 11 40 13 20 3 31 6 96 21 14 3 44 7 67 9 22 1 47 6 54 11 13 7 45 14 82 17 9 1 17 6 17 11 0 5 3 6 6 3 4 -3 14 -2 23 2 9 5 34 11 56 14 22 3 47 8 55 11 8 3 26 8 40 10 14 3 54 12 89 21 36 9 70 14 77 11 7 -3 14 -1 16 4 2 4 19 11 38 14 53 9 73 13 101 24 15 6 29 8 32 6 3 -3 13 -1 24 5 10 5 43 18 73 27 30 9 71 24 90 32 19 9 37 16 40 17 3 0 40 18 83 39 43 21 84 39 90 40 7 2 25 8 40 14 16 7 34 12 41 12 7 0 16 3 20 8 4 4 11 7 14 8 4 0 14 4 22 7 29 12 135 41 143 39 4 -1 7 3 7 9 0 5 4 8 9 4 5 -3 12 -1 15 4 5 7 35 16 74 22 4 0 12 4 17 8 10 8 53 20 69 20 5 -1 12 3 15 8 3 5 34 22 69 38 34 16 62 33 62 38 0 6 3 7 7 4 6 -7 67 27 91 50 13 12 28 17 45 14 5 -1 6 2 4 6 -3 5 1 14 9 21 8 7 14 10 14 7 0 -4 14 3 30 15 17 12 37 23 45 24 8 1 18 5 21 9 10 10 47 -3 57 -19z m-6041 -638 c7 4 8 2 4 -5 -9 -13 -26 -5 -25 12 0 9 2 8 6 -1 2 -6 10 -9 15 -6z m-80 -9 c-8 -10 -6 -13 7 -13 11 0 17 6 14 12 -6 15 23 12 38 -3 6 -6 18 -9 25 -6 8 3 14 0 14 -6 0 -6 7 -11 15 -11 9 0 20 -10 25 -22 5 -13 9 -19 9 -15 1 13 31 -20 31 -34 0 -7 3 -10 6 -6 5 5 33 -15 70 -50 7 -7 17 -13 23 -13 5 0 15 -8 20 -17 6 -10 11 -14 11 -9 0 5 9 1 20 -9 11 -10 20 -15 20 -12 0 4 15 -2 33 -13 17 -11 40 -20 50 -20 9 0 17 -4 17 -10 0 -5 12 -10 26 -10 16 0 23 -4 18 -12 -4 -6 -3 -8 3 -5 5 3 27 1 49 -5 21 -6 42 -11 47 -10 4 1 7 -2 7 -7 0 -5 9 -7 20 -4 11 3 20 0 20 -6 0 -6 12 -11 26 -11 14 0 23 -4 20 -9 -4 -5 2 -8 11 -6 10 1 24 -2 31 -8 6 -5 12 -6 12 -3 0 4 10 1 23 -6 12 -7 24 -13 27 -13 3 -1 32 -10 65 -20 33 -11 62 -19 65 -20 3 0 10 -3 16 -7 11 -7 31 -11 119 -23 22 -3 51 -8 65 -12 14 -3 32 -7 40 -9 40 -7 75 -16 113 -29 41 -14 57 -14 242 0 39 3 135 7 215 9 80 1 156 6 170 10 36 11 64 14 175 22 107 7 160 12 160 14 0 1 12 3 28 5 19 3 25 0 20 -8 -5 -9 -3 -9 8 -1 19 15 63 11 93 -10 19 -12 26 -26 27 -49 0 -30 3 -77 14 -222 2 -33 6 -69 8 -80 3 -11 13 -51 22 -90 24 -103 25 -108 30 -138 4 -32 8 -128 5 -142 -1 -5 -2 -13 -1 -17 0 -4 3 -87 5 -186 3 -98 9 -189 15 -203 5 -14 6 -32 1 -39 -5 -8 -6 -18 -3 -24 9 -13 10 -50 18 -326 9 -322 11 -352 30 -440 15 -68 22 -176 12 -186 -11 -11 -8 -452 2 -456 16 -5 34 -237 46 -593 1 -55 5 -118 9 -140 3 -22 7 -54 9 -71 2 -18 7 -36 11 -42 3 -6 7 -130 7 -276 1 -226 -1 -268 -14 -281 -12 -12 -41 -15 -131 -15 -71 0 -116 4 -116 10 0 12 -53 14 -64 3 -10 -11 -106 -12 -100 -1 3 4 -1 8 -10 8 -8 0 -17 -6 -19 -12 -4 -10 -8 -9 -16 2 -9 13 -14 13 -31 2 -14 -9 -26 -10 -33 -4 -16 13 -228 14 -247 2 -9 -5 -19 -5 -26 1 -11 9 -658 7 -1344 -3 -135 -2 -252 0 -261 4 -9 4 -19 4 -23 1 -11 -12 -208 -10 -251 1 -22 6 -52 19 -65 29 l-25 17 0 193 c-1 105 3 199 7 208 4 9 4 19 1 23 -10 10 -10 1049 0 1070 5 10 5 16 0 13 -11 -7 -9 294 2 313 5 7 4 11 -1 7 -13 -7 -12 466 1 475 6 5 6 8 -1 8 -12 0 -12 29 1 49 5 9 4 12 -1 8 -11 -6 -11 189 -1 200 4 3 2 12 -4 19 -7 8 -7 14 1 19 6 3 7 12 3 18 -10 16 -10 107 0 107 5 0 5 5 1 11 -9 15 -9 132 0 147 3 6 2 13 -4 17 -7 4 -7 12 0 25 7 13 7 21 0 25 -6 4 -7 13 -1 24 6 10 6 23 1 31 -5 8 -5 21 1 31 5 10 6 20 2 22 -10 6 -7 162 3 178 4 7 3 10 -4 5 -12 -7 -11 32 1 51 4 6 3 14 -3 18 -5 3 -10 11 -10 16 0 6 5 7 11 3 8 -4 8 -1 2 12 -10 21 -9 65 1 82 3 6 3 13 -1 15 -7 4 -9 293 -3 322 1 6 2 12 1 15 -8 21 -6 98 1 93 6 -3 7 2 1 13 -10 24 -10 95 2 113 5 8 4 12 -1 8 -6 -3 -10 29 -10 78 0 55 4 81 11 77 6 -4 6 -1 -1 9 -14 19 -16 61 -2 53 6 -4 4 3 -5 15 -17 25 -12 55 7 44 6 -4 5 1 -3 10 -9 12 -10 21 -3 30 6 6 11 15 11 20 1 4 2 6 4 5 1 -2 13 7 27 20 13 12 31 20 39 17 7 -3 20 4 28 15 8 11 17 20 20 20 3 0 1 -6 -5 -13z m-4149 -4910 c-4 -6 -1 -7 8 -1 8 4 35 8 61 9 36 0 48 -4 48 -15 0 -10 3 -11 8 -4 9 14 43 14 61 0 11 -8 13 -8 8 0 -4 8 89 11 328 12 252 0 333 -3 328 -11 -5 -8 -2 -8 8 0 17 14 286 12 307 -1 7 -4 12 -4 12 1 0 10 91 9 108 -1 7 -4 12 -4 12 1 0 4 20 8 45 8 25 1 45 -3 45 -8 0 -4 5 -5 12 -1 14 9 382 9 397 0 6 -4 11 -4 11 1 0 9 177 9 186 1 3 -3 20 -2 37 2 18 4 43 3 55 -1 12 -5 24 -4 27 0 3 5 20 5 39 1 19 -4 38 -5 41 -2 9 9 135 8 135 -1 0 -5 6 -5 12 -1 17 11 48 12 53 4 3 -4 17 -6 32 -3 87 12 282 1 293 -17 4 -7 11 -10 16 -8 24 9 36 -59 39 -220 2 -92 7 -196 13 -232 10 -72 7 -4148 -3 -4490 -4 -113 -7 -209 -7 -215 0 -5 4 -32 8 -60 6 -42 8 -1432 2 -1547 -1 -21 -6 -38 -11 -38 -4 0 -5 -4 -2 -10 7 -12 7 -160 0 -214 -3 -21 -10 -47 -16 -57 -5 -11 -8 -23 -5 -28 6 -9 -43 -65 -60 -68 -31 -6 -139 -15 -172 -15 -20 0 -594 1 -1275 2 -780 2 -1255 6 -1285 12 -48 11 -65 24 -57 45 2 7 0 15 -5 18 -6 3 -5 16 0 31 6 14 6 23 1 20 -5 -4 -6 9 -1 29 4 19 6 36 3 39 -9 9 -10 41 -2 64 5 13 5 22 -1 22 -5 0 -7 10 -4 23 5 26 6 70 2 155 -2 34 0 62 4 62 4 0 5 6 2 14 -9 22 -11 106 -3 106 4 0 4 15 0 33 -4 17 -4 44 0 60 4 15 4 27 0 27 -9 0 -6 54 4 69 3 6 3 11 -2 11 -4 0 -7 28 -5 63 4 80 4 77 -1 110 -2 15 -1 27 4 27 4 0 4 12 0 28 -5 15 -5 36 -1 47 4 11 4 27 -1 36 -5 9 -5 19 -2 23 8 7 7 105 -1 113 -3 3 -1 14 5 24 5 11 6 19 1 19 -10 0 -9 36 1 46 3 4 2 15 -4 25 -7 13 -6 19 1 19 7 0 8 6 2 18 -10 21 -10 32 2 51 6 9 6 16 -1 18 -10 4 -9 53 2 81 2 6 -1 12 -7 12 -7 0 -6 5 2 15 7 8 8 15 3 15 -11 0 -10 61 1 79 4 6 3 11 -2 11 -10 0 -7 54 3 71 4 5 3 9 -2 9 -10 0 -9 133 1 149 4 6 2 11 -4 11 -8 0 -8 6 0 20 6 11 7 20 3 20 -12 0 -10 64 2 72 6 5 5 8 -3 8 -10 0 -10 5 -2 20 6 11 7 20 3 20 -4 0 -8 32 -8 70 0 39 4 70 9 70 6 0 5 5 -2 12 -7 7 -8 17 -1 30 7 13 6 18 -2 18 -8 0 -9 4 0 13 6 8 8 17 5 20 -10 9 -11 48 -3 78 4 15 3 32 -2 40 -4 8 -3 19 3 26 7 9 7 13 -1 13 -8 0 -9 5 -2 18 5 10 6 24 1 32 -4 7 -6 23 -4 34 4 19 5 49 4 86 -1 8 1 32 2 53 2 21 0 41 -4 43 -3 2 -3 17 2 33 4 15 4 34 0 41 -5 7 -4 24 1 37 5 14 5 22 0 19 -5 -4 -6 9 -1 29 4 19 5 35 1 35 -6 0 -7 33 -1 50 4 12 2 81 -3 86 -3 3 -1 19 3 35 5 17 5 31 -1 35 -5 3 -7 10 -3 15 7 12 9 138 1 145 -3 3 -2 17 3 30 5 13 6 26 0 29 -5 3 -5 18 0 35 5 18 5 32 -1 36 -5 3 -7 10 -3 15 9 14 11 108 3 121 -4 7 -4 19 1 28 5 9 5 22 0 29 -4 8 -5 25 -1 40 4 14 4 40 1 56 -4 17 -3 38 2 48 5 10 4 25 -2 36 -7 14 -7 22 0 26 8 5 8 11 0 20 -8 10 -8 19 0 34 7 15 7 21 0 21 -8 0 -8 6 0 20 7 14 8 26 0 39 -7 14 -7 22 0 26 8 5 7 11 0 20 -7 8 -9 19 -5 25 10 16 12 81 3 87 -5 2 -6 9 -2 14 8 13 9 107 2 115 -4 3 -2 19 2 35 5 16 5 31 0 34 -5 3 -5 19 0 36 6 20 6 39 -1 50 -7 13 -6 26 2 40 7 15 8 24 0 32 -6 6 -7 16 -1 28 7 12 6 20 0 24 -6 4 -7 11 -4 17 4 6 7 30 7 53 0 23 -3 47 -7 53 -3 6 -2 14 4 17 8 5 8 11 0 20 -8 10 -8 19 0 35 6 11 8 26 3 32 -9 16 -9 50 1 66 4 6 4 12 -1 12 -10 0 -9 52 1 68 4 7 4 12 -1 12 -7 0 -9 65 -3 88 4 16 2 73 -3 78 -3 3 -2 18 3 33 4 16 4 34 -1 42 -4 7 -4 19 2 25 6 7 6 15 1 18 -10 6 -8 48 2 65 4 5 2 12 -3 16 -6 3 -7 16 -3 28 9 27 9 48 -1 64 -4 7 -3 22 3 33 6 11 8 26 3 33 -9 15 -10 46 -1 74 4 12 3 25 -1 28 -5 3 -6 20 -2 38 5 18 5 41 1 52 -4 11 -4 28 1 37 5 9 5 19 0 22 -9 6 -7 48 3 65 4 5 3 12 -1 14 -7 4 -9 141 -3 157 1 3 2 9 1 14 -6 32 -6 106 0 106 4 0 4 15 0 33 -4 17 -4 48 -1 67 3 19 3 45 -2 57 -4 13 -3 25 3 29 6 3 6 11 2 17 -5 7 -8 28 -7 47 1 19 3 46 4 60 0 14 -1 42 -3 63 -2 22 0 37 7 37 7 0 7 3 1 8 -5 4 -10 14 -10 22 0 8 5 18 10 22 7 5 7 8 0 8 -6 0 -10 28 -10 65 0 36 4 65 8 65 4 0 4 8 -1 18 -10 21 -9 202 1 220 5 6 5 12 0 12 -4 0 -8 22 -9 50 0 32 3 47 10 43 8 -5 8 -3 0 8 -9 12 -11 121 -2 159 6 27 20 41 34 36 8 -3 14 -2 14 2 0 4 13 7 30 8 17 1 27 -3 23 -9z m-3549 -9 c-4 -7 -3 -8 5 -4 19 12 101 13 101 2 0 -6 5 -5 12 2 8 8 15 9 25 1 7 -7 13 -8 13 -3 0 10 150 10 174 1 9 -4 16 -3 16 1 0 4 11 7 25 7 14 0 25 -3 25 -7 0 -4 6 -5 13 -3 24 9 97 11 97 3 0 -5 10 -4 21 3 17 9 20 8 14 -2 -6 -8 -4 -10 5 -4 17 10 200 12 200 2 0 -5 4 -6 10 -2 16 10 100 12 100 3 0 -5 5 -6 11 -3 15 10 120 12 126 2 2 -4 10 -4 16 0 14 8 147 11 147 2 0 -3 7 -6 15 -6 8 0 15 3 15 6 0 3 23 6 50 6 28 0 50 -4 50 -9 0 -5 6 -4 13 0 6 5 26 8 42 6 30 -2 56 -2 105 2 14 1 31 -3 38 -8 6 -4 12 -5 12 0 0 5 47 9 105 9 58 0 105 -3 105 -7 0 -4 10 -4 23 0 12 5 33 7 47 5 35 -5 41 -5 73 0 15 2 27 0 27 -5 0 -5 5 -6 11 -2 14 8 137 9 145 1 3 -3 17 -2 30 3 14 6 26 6 29 0 3 -6 16 -5 31 0 18 7 23 7 18 -2 -5 -7 -3 -8 5 -3 16 10 109 12 124 3 6 -4 16 -4 21 0 17 10 66 9 66 -1 0 -5 7 -3 17 4 20 17 16 17 38 -1 11 -9 16 -10 11 -2 -5 8 1 12 18 12 14 0 26 -6 26 -12 0 -9 3 -9 8 -2 10 14 113 15 105 0 -3 -6 0 -5 8 2 17 15 53 16 43 0 -5 -8 -3 -8 7 -2 15 10 99 13 99 4 0 -3 15 -5 34 -5 18 1 40 -3 49 -10 13 -9 15 -379 15 -3290 1 -1804 2 -3391 2 -3527 1 -136 -1 -252 -5 -258 -3 -5 -2 -10 3 -10 12 0 -2 -88 -16 -102 -12 -12 -75 -20 -137 -17 -22 1 -60 1 -85 1 -79 0 -1552 -1 -1622 -1 -37 0 -72 -2 -78 -6 -5 -3 -10 -3 -10 2 0 8 -208 8 -216 0 -3 -3 -21 -1 -40 3 -19 4 -36 4 -39 0 -3 -5 -18 -5 -34 0 -16 4 -32 6 -35 3 -7 -7 -467 -6 -473 1 -3 3 -13 1 -23 -4 -25 -13 -82 5 -99 32 -13 20 -15 264 -18 1693 -2 919 -5 1807 -6 1973 -1 167 1 306 4 308 4 2 3 20 -1 39 -4 19 -5 35 -1 35 3 0 4 36 1 80 -3 44 -1 80 3 80 5 0 5 5 1 12 -4 6 -9 594 -10 1307 -2 713 -5 1313 -7 1334 -1 20 2 37 8 38 6 0 7 2 0 5 -6 2 -9 44 -8 101 2 127 9 164 28 156 10 -3 15 1 15 12 0 10 6 15 13 12 6 -2 21 -1 32 4 27 10 27 10 19 -3z m8189 -652 c-4 -5 -1 -6 6 -1 9 5 1554 9 2103 5 25 0 45 -8 62 -23 14 -13 24 -26 21 -29 -3 -2 2 -38 11 -79 8 -41 17 -89 20 -108 2 -18 7 -38 10 -43 4 -6 8 -96 10 -202 4 -239 11 -352 23 -394 5 -18 10 -33 9 -35 0 -1 3 -22 7 -47 3 -25 8 -85 10 -135 4 -86 9 -130 21 -185 3 -14 8 -49 10 -79 2 -30 6 -57 9 -59 3 -3 0 -11 -6 -19 -6 -7 -8 -13 -3 -13 5 0 10 -64 10 -143 2 -135 9 -266 19 -332 2 -16 7 -59 11 -95 3 -36 9 -69 11 -73 3 -5 7 -27 9 -48 2 -22 8 -56 12 -77 5 -21 10 -103 11 -182 4 -224 8 -323 14 -345 5 -20 15 -134 22 -255 2 -36 13 -110 24 -165 11 -55 20 -116 20 -135 0 -19 -1 -66 -1 -105 -1 -58 8 -210 12 -210 1 0 3 -20 5 -45 2 -25 6 -74 10 -110 3 -36 8 -110 10 -165 5 -95 8 -118 19 -175 3 -14 7 -42 10 -64 4 -21 9 -42 12 -47 3 -5 7 -62 9 -127 4 -120 12 -219 20 -263 3 -13 8 -87 11 -164 7 -215 15 -299 37 -431 7 -39 12 -137 12 -218 0 -80 3 -146 7 -146 4 0 4 -10 -1 -22 -5 -13 -5 -33 0 -45 5 -14 4 -25 -2 -29 -8 -4 -8 -9 -1 -13 16 -9 26 -125 35 -398 1 -29 5 -53 8 -53 3 0 6 -6 6 -12 2 -32 14 -102 19 -110 3 -5 7 -41 9 -81 2 -39 5 -72 5 -72 1 0 3 -12 4 -27 1 -16 -2 -28 -6 -28 -4 0 -3 -11 2 -25 6 -17 6 -25 -1 -25 -6 0 -7 -6 -1 -17 13 -22 -5 -39 -43 -40 -16 -1 -52 -2 -80 -3 -27 -1 -320 -1 -650 -1 -330 0 -1015 0 -1521 0 -507 0 -939 3 -960 7 -22 4 -48 13 -59 21 -23 16 -50 103 -31 103 7 0 7 3 1 8 -6 4 -10 52 -10 107 0 55 4 103 10 107 7 5 7 8 0 8 -6 0 -10 45 -10 115 0 70 4 115 10 115 7 0 7 3 0 8 -14 10 -14 1064 0 1074 7 5 7 8 0 8 -6 0 -10 15 -9 33 1 17 3 50 4 72 1 22 1 42 0 45 -6 19 -3 150 3 150 5 0 5 5 1 12 -7 11 -9 117 -4 143 1 6 2 12 1 15 -8 20 -4 160 4 160 7 0 7 3 0 8 -5 4 -10 39 -10 77 0 39 5 73 10 77 7 5 7 8 0 8 -11 0 -13 480 -1 498 3 6 3 13 -2 16 -7 4 -8 69 -2 101 1 6 2 12 1 15 -8 22 -4 380 4 380 7 0 7 3 0 8 -6 4 -10 72 -10 167 0 95 4 163 10 167 7 5 7 8 0 8 -11 0 -12 427 -2 454 4 9 3 17 -1 20 -4 2 -7 486 -7 1075 0 589 -4 1071 -8 1071 -5 0 -6 4 -3 8 3 5 7 21 10 37 6 32 38 62 71 67 52 8 553 2 548 -6z m3679 -1 c5 -7 8 -7 8 0 0 8 230 12 275 5 6 -1 30 -1 55 0 25 1 62 3 83 4 20 0 37 -3 38 -9 0 -7 2 -7 5 0 3 7 268 11 344 5 3 0 266 0 585 1 753 1 821 0 873 -12 39 -8 76 -31 78 -48 12 -100 16 -153 14 -199 -4 -132 1 -246 14 -283 3 -8 8 -25 10 -39 3 -14 8 -36 12 -50 3 -14 8 -86 10 -160 6 -225 9 -290 14 -290 3 0 6 -19 7 -43 1 -23 4 -85 7 -137 3 -52 8 -143 11 -203 2 -59 7 -112 10 -117 3 -6 8 -32 10 -60 2 -27 6 -54 10 -60 6 -10 10 -60 20 -245 2 -55 7 -111 9 -125 3 -14 7 -74 11 -135 6 -117 12 -153 28 -173 5 -7 7 -15 4 -18 -2 -3 1 -30 8 -60 7 -29 13 -95 14 -146 5 -229 10 -388 16 -448 10 -115 16 -202 20 -326 6 -158 13 -253 19 -282 7 -31 21 -234 31 -432 2 -36 4 -65 5 -65 4 0 17 -203 26 -410 3 -82 8 -166 10 -185 2 -19 6 -64 9 -100 3 -36 10 -80 16 -98 8 -25 22 -193 19 -247 -2 -60 -1 -117 4 -150 3 -22 8 -76 11 -120 4 -44 8 -86 10 -92 3 -7 5 -102 5 -211 1 -151 6 -213 18 -263 10 -35 16 -84 14 -109 -8 -121 -8 -237 0 -252 10 -20 17 -144 9 -156 -3 -5 -14 -12 -25 -15 -16 -6 -1104 -12 -1131 -7 -5 1 -14 2 -20 0 -12 -2 -358 -1 -365 1 -3 1 -9 1 -15 -1 -11 -2 -206 -2 -220 1 -5 1 -14 0 -20 -1 -16 -3 -252 1 -355 6 -52 3 -126 6 -165 8 -38 2 -74 4 -80 6 -5 1 -14 1 -20 0 -32 -8 -185 -4 -185 5 0 7 -3 7 -8 0 -9 -13 -212 -14 -212 -1 0 5 -5 5 -12 -1 -12 -8 -80 -8 -121 0 -10 2 -23 10 -28 18 -5 8 -9 10 -9 4 -1 -27 -41 77 -54 140 -4 17 -9 41 -11 55 -14 68 -22 178 -25 340 -1 47 -9 117 -17 155 -36 172 -41 207 -45 318 -1 64 -6 117 -9 117 -3 0 -6 6 -6 13 0 6 -3 57 -7 112 -4 55 -9 159 -11 230 -8 210 -13 265 -35 380 -6 28 -12 77 -15 110 -2 33 -7 76 -9 95 -3 19 -7 72 -10 118 -3 45 -7 85 -9 90 -2 4 -5 66 -6 137 -3 130 -8 240 -11 240 -1 0 -3 17 -5 38 -3 36 -8 66 -20 127 -3 14 -7 102 -10 195 -3 94 -7 188 -10 210 -12 92 -17 190 -26 556 -1 37 1 71 5 77 3 6 3 13 -2 16 -10 6 -8 88 3 106 5 9 4 11 -4 6 -8 -5 -11 2 -10 21 0 15 -2 39 -6 53 -3 14 -7 41 -9 61 -2 20 -7 43 -12 50 -4 8 -9 89 -10 182 -1 93 -5 171 -8 174 -3 4 -1 12 5 20 6 7 8 13 3 13 -8 0 -13 51 -18 167 0 24 -5 43 -10 43 -5 0 -3 6 3 13 6 8 8 17 5 20 -4 3 -8 25 -10 49 -1 24 -3 43 -4 43 0 0 -3 50 -5 110 -4 103 -6 125 -21 215 -3 19 -7 46 -9 60 -7 44 -18 300 -15 340 3 42 -20 431 -26 442 -2 4 0 9 6 13 6 4 7 11 4 17 -4 6 -9 50 -10 97 -10 230 -12 270 -18 280 -4 6 -3 11 3 11 5 0 13 9 16 20 3 11 13 20 21 20 8 0 14 4 14 9 0 12 643 8 652 -4z m3336 1 c7 -4 12 -4 12 1 0 12 2043 10 2052 -2 5 -7 8 -7 8 0 0 6 88 9 247 8 323 -2 335 -3 341 -25 2 -10 8 -16 11 -13 9 5 10 -4 16 -245 4 -158 18 -1096 17 -1125 -1 -5 -2 -19 -2 -30 -1 -11 -1 -117 0 -236 2 -119 0 -222 -4 -228 -4 -6 -4 -11 1 -11 10 0 10 -186 1 -196 -4 -4 -4 -12 -1 -18 11 -17 11 -129 0 -143 -6 -9 -6 -13 0 -13 6 0 10 -15 10 -33 -1 -18 2 -37 5 -43 4 -5 9 -29 11 -51 3 -23 9 -47 13 -54 9 -16 11 -550 1 -556 -4 -2 -5 -9 -1 -14 3 -5 7 -260 9 -567 2 -306 6 -570 10 -587 11 -50 11 -155 0 -155 -7 0 -7 -3 0 -8 6 -4 11 -36 11 -72 1 -36 4 -180 8 -320 3 -140 6 -421 5 -625 0 -203 0 -379 0 -390 1 -11 1 -33 0 -50 0 -16 0 -36 0 -42 0 -14 0 -72 0 -100 0 -10 0 -70 0 -133 0 -63 0 -145 0 -182 -1 -36 2 -71 5 -77 4 -5 2 -12 -4 -16 -6 -4 -7 -12 -3 -18 12 -19 11 -51 -1 -59 -8 -6 -8 -8 1 -8 11 0 10 -17 -9 -78 -5 -18 -14 -30 -19 -27 -5 4 -9 1 -9 -6 0 -8 -5 -7 -17 2 -9 8 -14 9 -10 3 9 -15 -165 -14 -175 1 -5 7 -8 6 -8 -2 0 -9 -48 -12 -70 -3 -14 6 -36 4 -46 -2 -15 -11 -66 -7 -83 6 -11 8 -13 8 -8 0 9 -15 -43 -15 -62 0 -11 8 -13 8 -8 -1 8 -14 -50 -13 -72 1 -9 6 -12 5 -8 -1 10 -16 -723 -14 -742 1 -11 8 -13 8 -8 -1 9 -15 -194 -13 -205 2 -5 7 -8 6 -8 0 0 -12 -154 -14 -166 -3 -4 4 -12 4 -18 1 -18 -12 -216 -10 -216 2 0 7 -3 7 -8 0 -9 -14 -55 -13 -64 0 -5 7 -8 6 -8 0 0 -12 -154 -14 -166 -3 -4 4 -12 4 -18 1 -18 -12 -196 -10 -196 1 0 6 -4 6 -11 -1 -12 -12 -99 2 -110 18 -9 15 -17 106 -18 204 -1 99 -8 170 -22 213 -6 18 -8 36 -5 39 3 3 1 14 -5 24 -10 19 -22 245 -29 554 -2 61 -9 129 -15 152 -7 23 -10 44 -7 47 3 4 1 6 -5 6 -14 0 -24 50 -26 132 -1 38 -4 68 -7 68 -3 0 -5 78 -6 173 0 163 -8 312 -19 367 -3 14 -8 66 -11 115 -10 175 -15 212 -40 325 -3 14 -7 81 -9 150 -3 69 -7 161 -10 205 -3 44 -7 116 -9 160 -2 44 -7 123 -11 176 -4 53 -8 184 -10 290 -3 180 -6 223 -21 289 -11 47 -17 105 -18 172 -1 38 -3 68 -6 68 -4 0 -6 10 -7 23 0 12 -4 63 -8 112 -4 50 -8 109 -9 132 0 24 -3 43 -6 43 -3 0 -5 23 -4 50 0 28 -2 53 -6 55 -8 5 -5 48 5 65 5 9 4 11 -3 6 -8 -5 -12 3 -12 26 0 31 -13 93 -27 128 -10 25 -12 50 -17 189 -7 166 -18 286 -26 286 -4 0 -12 43 -13 72 -1 17 -5 29 -9 26 -5 -2 -9 8 -9 24 -1 15 -3 51 -5 78 -4 47 -5 121 -3 155 0 8 -2 31 -5 50 -3 19 -8 86 -11 149 -3 63 -7 116 -9 119 -3 2 -1 15 4 28 5 13 6 24 2 24 -4 0 -8 24 -8 53 -3 125 -8 193 -14 202 -8 12 -30 112 -36 163 -2 20 -6 47 -9 59 -3 12 0 25 5 28 6 4 8 11 4 16 -10 17 -13 198 -3 204 5 4 7 11 4 16 -4 5 -4 13 -1 17 6 10 298 8 314 -2z" transform="translate(0.000000,4096.000000) scale(0.100000,-0.100000)"/><path d="M33937 28104 c-1 -1 -18 -5 -37 -8 -45 -7 -178 -53 -207 -72 -12 -8 -27 -14 -34 -14 -6 0 -24 -9 -40 -21 -16 -11 -29 -18 -29 -15 0 3 -54 -22 -120 -55 -66 -34 -120 -65 -120 -70 0 -5 -9 -9 -20 -9 -11 0 -20 -3 -20 -7 0 -5 -17 -19 -37 -33 -53 -36 -97 -75 -177 -157 -96 -98 -106 -109 -151 -173 -22 -30 -43 -56 -47 -58 -5 -2 -8 -10 -8 -18 0 -8 -4 -14 -10 -14 -5 0 -10 -9 -10 -20 0 -11 -4 -20 -10 -20 -5 0 -10 -4 -10 -10 0 -5 -13 -32 -30 -60 -16 -28 -30 -57 -30 -65 0 -7 -4 -15 -9 -17 -7 -3 -104 -190 -175 -338 -11 -25 -25 -48 -31 -52 -5 -4 -7 -8 -3 -8 4 0 1 -12 -7 -27 -8 -15 -12 -30 -9 -35 3 -4 0 -8 -7 -8 -7 0 -10 -3 -6 -6 3 -4 0 -19 -8 -34 -16 -31 -54 -158 -61 -205 -3 -16 -9 -51 -15 -76 -6 -26 -12 -55 -14 -65 -2 -11 -4 -21 -5 -24 -1 -3 -2 -8 -1 -12 0 -4 -4 -20 -10 -35 -6 -15 -13 -44 -15 -63 -5 -35 -8 -53 -19 -100 -3 -14 -7 -39 -10 -56 -2 -18 -10 -47 -18 -65 -7 -19 -12 -40 -10 -46 3 -7 0 -13 -6 -13 -6 0 -10 -3 -9 -7 1 -5 -7 -26 -19 -48 -21 -42 -41 -96 -48 -136 -3 -13 -9 -44 -15 -69 -5 -25 -12 -56 -14 -70 -3 -14 -8 -36 -11 -50 -3 -14 -8 -41 -11 -60 -3 -19 -9 -51 -14 -70 -9 -37 -20 -116 -26 -190 -5 -61 -4 -506 1 -550 5 -39 23 -139 29 -155 1 -5 8 -21 13 -35 6 -14 25 -61 44 -105 18 -44 38 -87 44 -95 7 -8 15 -24 19 -34 9 -27 108 -190 119 -197 5 -3 9 -10 9 -15 1 -11 50 -78 61 -82 4 -2 5 -8 1 -13 -3 -5 -1 -9 5 -9 5 0 12 -8 15 -18 3 -10 24 -37 46 -60 21 -24 39 -45 40 -47 0 -3 2 -4 5 -2 8 4 33 -38 28 -47 -4 -5 -2 -6 4 -3 11 7 45 -28 36 -37 -4 -3 1 -6 10 -6 9 0 17 -7 17 -16 0 -8 5 -12 10 -9 6 3 10 2 10 -3 0 -15 100 -112 114 -112 8 0 17 -7 20 -16 3 -8 10 -13 15 -10 4 3 19 -3 31 -14 13 -11 29 -20 35 -20 7 0 25 -10 41 -22 15 -13 25 -17 20 -10 -4 7 8 4 27 -7 19 -11 38 -17 41 -14 3 3 17 -2 31 -11 15 -10 33 -15 40 -12 7 2 16 2 20 -2 4 -4 10 -7 13 -8 4 0 34 -8 67 -18 33 -10 86 -20 117 -21 31 -2 62 -6 67 -10 6 -3 11 -2 11 2 0 5 18 8 40 7 93 -3 342 75 404 127 65 54 168 195 208 285 11 27 24 42 30 38 7 -4 8 -2 4 5 -4 6 -1 35 8 64 35 118 42 165 40 275 -1 70 -7 118 -14 127 -7 8 -10 15 -7 15 8 0 -23 103 -34 115 -5 5 -9 16 -9 25 0 19 -58 140 -74 155 -6 6 -41 26 -78 45 -38 19 -68 38 -68 42 0 5 -7 8 -15 8 -8 0 -20 9 -27 20 -7 11 -18 20 -25 20 -7 0 -13 5 -13 10 0 6 -7 10 -15 10 -8 0 -15 3 -15 8 0 14 -151 72 -187 72 -12 0 -25 5 -28 10 -4 6 -12 10 -18 8 -13 -2 -66 12 -157 42 -30 10 -77 23 -105 30 -115 30 -132 53 -140 196 -10 163 -7 408 5 412 12 4 14 32 1 32 -10 0 -5 73 9 132 6 24 13 54 16 68 3 13 9 29 14 35 4 5 8 12 8 15 0 10 24 95 30 105 4 6 7 15 8 20 1 6 8 24 15 40 7 17 13 32 14 35 1 3 9 23 19 45 9 22 29 69 43 105 14 36 31 68 37 72 6 4 8 8 4 8 -6 0 20 86 39 130 4 8 7 20 8 25 3 22 17 55 24 55 4 0 8 6 8 13 0 22 56 157 65 157 4 0 7 3 6 8 -2 4 8 25 21 47 14 22 24 43 23 48 -1 4 3 7 8 7 6 0 15 10 20 23 14 32 32 58 68 101 6 8 12 20 12 26 0 5 4 10 9 10 5 0 20 20 32 45 12 25 27 45 31 45 5 0 6 5 3 10 -3 6 -2 10 2 10 9 0 48 67 48 83 0 5 7 14 16 20 14 11 20 21 30 52 1 6 7 15 11 20 5 6 27 41 49 78 23 38 49 79 59 90 46 56 104 124 121 145 10 12 19 27 19 32 0 6 7 10 16 10 8 0 12 5 9 11 -4 5 7 23 23 39 17 16 28 31 24 34 -3 3 0 6 6 6 7 0 12 6 12 14 0 8 3 16 8 18 13 5 69 99 103 173 18 39 39 85 48 103 16 33 16 34 -14 58 -35 29 -104 68 -125 70 -8 1 -35 9 -60 19 -32 11 -71 15 -138 14 -51 -2 -93 -4 -95 -5z" transform="translate(0.000000,4096.000000) scale(0.100000,-0.100000)"/><path d="M18073 19195 c0 -8 4 -12 9 -9 4 3 8 9 8 15 0 5 -4 9 -8 9 -5 0 -9 -7 -9 -15z" transform="translate(0.000000,4096.000000) scale(0.100000,-0.100000)"/></g></svg>